<svg width="72" height="70" viewBox="0 0 72 70" fill="none" xmlns="http://www.w3.org/2000/svg">
<g clip-path="url(#clip0_3_2)">
<path d="M65.3793 18.6351C65.6388 17.9288 65.254 17.139 64.5189 16.8689L32.2581 5.01659C27.7282 3.35233 22.7511 5.54384 21.1559 9.88561L8.34529 44.7548C6.74635 49.107 9.13551 53.993 13.6546 55.6533L45.9262 67.5096C46.6614 67.7797 47.4659 67.4268 47.7254 66.7205L60.5322 31.8617C60.7917 31.1554 60.407 30.3656 59.6718 30.0956L27.4002 18.2393C24.3406 17.1152 22.7247 13.7983 23.8047 10.8587C24.8846 7.91922 28.2636 6.43734 31.3232 7.5614L63.5947 19.4177C64.3191 19.6838 65.1236 19.331 65.3793 18.6351ZM26.4653 20.7841L57.4071 32.1518L45.5314 64.4762L14.5896 53.1085C11.53 51.9844 9.91409 48.6675 10.994 45.7279L21.6753 16.6547C22.6578 18.4893 24.3246 19.9976 26.4653 20.7841Z" fill="black"/>
<path d="M30.2393 11.9142C29.5042 11.6441 28.6997 11.9969 28.4402 12.7032C28.1807 13.4096 28.5654 14.1993 29.3006 14.4694L59.5829 25.5949C60.3181 25.865 61.1226 25.5121 61.3821 24.8058C61.6416 24.0995 61.2568 23.3097 60.5217 23.0397L30.2393 11.9142Z" fill="black"/>
<path d="M23 49.78L31.2006 28L44.3452 32.9492L43.4643 35.2889L32.9571 31.3327L30.1862 38.692L40.0127 42.3919L39.1318 44.7315L29.3053 41.0316L26.5184 48.4334L37.1957 52.4537L36.3147 54.7933L23 49.78Z" fill="black"/>
</g>
<defs>
<clipPath id="clip0_3_2">
<rect width="56.1493" height="53.9459" fill="white" transform="translate(18.6035) rotate(20.1729)"/>
</clipPath>
</defs>
</svg>
