<?xml version="1.0" encoding="UTF-8"?><svg id="a" xmlns="http://www.w3.org/2000/svg" viewBox="0 0 800 600.7"><path d="M393.04,485.17c.06-1.03,.45-2.17,.14-3.07-4.27-12.74-5.51-25.74-3.59-39.04,.11-.79,.36-1.57,.61-2.33,.08-.26,.34-.46,1.05-1.35,.25,2.41,.48,4.21,.6,6.01,.67,9.53,1.25,19.07,2,28.6,.14,1.77,.77,3.56,1.51,5.2,1.98,4.39,5.31,7.27,10.29,7.09,6.42-.24,12.9-.53,19.23-1.52,14.52-2.27,28.97-5.02,43.46-7.5,36.35-6.21,72.71-12.3,109.05-18.57,14.29-2.47,28.52-5.27,42.78-7.91,.18-.03,.38,.06,1.07,.19-.59,1.01-1.09,1.89-1.62,2.76-5.27,8.8-6.54,18.32-4.63,28.24,.49,2.54,2.03,5,3.52,7.2,1.39,2.06,1.98,4.04,.83,6.2-4.83,9.05-9.37,18.29-14.77,27-5.56,8.96-14.85,9.83-24.36,9.32-10.16-.54-20.31-1.17-30.47-1.59-17.71-.73-35.44-1.24-53.15-1.98-16.8-.7-33.59-1.68-50.4-2.35-13.89-.55-27.79-.82-41.68-1.25-19.23-.6-38.46-1.27-57.69-1.86-12.28-.38-24.57-.68-36.85-1.03-22.56-.65-45.11-1.3-67.67-1.99-9.87-.3-19.73-.7-29.59-1.07-1.51-.06-3.03-.06-4.52-.25-4.84-.62-6.27-2.68-4.88-7.41,.88-2.98,2.68-5.75,3.18-8.76,1.47-8.77-.17-17.25-3.73-25.32-1.73-3.92-2.87-7.86,.4-11.26,1.88-1.95,4.47-3.51,7.03-4.45,13.15-4.83,26.3-9.68,39.64-13.95,6.54-2.09,9.32-6.46,9.8-12.61,.3-3.76-.08-7.66-.73-11.39-.68-3.89-3.15-6.56-7.37-6.86-3.4-.24-6.82-.19-10.23-.27-6.84-.17-13.72,.09-20.5-.62-7.2-.75-11.18-4.72-11.66-12.07-.54-8.2-.02-16.46,.12-24.7,.02-1.29,.45-2.57,.65-3.87,1.15-7.3,5.61-11.81,12.16-14.62,2.28-.98,4.51-2.08,7.31-3.38-1.82-.68-2.98-1.12-4.15-1.56l.07-.45h105.1l.31-.51c-.63-.45-1.21-1.14-1.91-1.29-1.66-.37-3.38-.65-5.07-.68-21.77-.3-43.54-.41-65.3-.85-12.98-.26-25.96-.89-38.93-1.63-5.04-.29-6.78-2.03-7.73-6.96-2.65-13.71-1.58-27.27,2.1-40.67,1.04-3.78,3.95-5.38,7.34-6.48,8.05-2.62,16.1-5.25,24.14-7.9,1.12-.37,2.18-.89,3.84-1.58-3.56-4.31-1.29-7.99,.8-11.61,2.74-4.75,3.91-9.9,4.26-15.29,.43-6.63-2.97-10.61-9.6-11.04-2.91-.19-5.84-.05-8.77-.07-1.21-.01-2.43,.03-3.62-.15-2.37-.36-4.77-1.08-5.36-3.71-.61-2.72,1.49-4.16,3.49-5.44,.51-.33,1.06-.58,1.59-.87,11.35-6.33,12.26-21.15,1.74-29.04-1.1-.83-2.48-1.33-3.79-1.82-2.29-.86-3.98-2.25-3.71-4.85,.27-2.62,2.27-3.71,4.65-3.97,2.7-.29,5.42-.42,8.13-.58,7.13-.43,14.27-.79,21.4-1.3,1.64-.12,3.24-.77,4.86-1.17l.6-1.06c-1.89-1.62-3.9-3.12-5.63-4.89-3.01-3.08-3.06-3.92-1.07-7.68,4.43-8.37,3.81-16.88,.73-25.45-1.03-2.86-2.98-4.9-5.74-6.32-3.21-1.65-3.49-3.76-1.21-6.59,8.09-10.02,7.71-21.77-.99-30.95-2.37-2.5-1.96-5.13,1.39-6.29,2.61-.9,5.5-1.32,8.28-1.4,12.59-.33,25.19-.46,37.78-.7,1.21-.02,2.41-.32,4.58-.63-1.88-1.55-2.91-2.64-4.14-3.37-5.98-3.55-7.88-8.86-6.82-15.47,1.54-9.6,5.41-18.19,12.03-25.28,6.66-7.14,15.72-8.57,24.69-4.71,7.2,3.1,12.71,8.42,18.45,13.49,4.14,3.66,8.4,7.2,12.69,10.7,2.08,1.7,4.51,2.02,7.14,1.33,4.38-1.15,8.75-2.39,13.2-3.19,1.68-.3,3.88,.03,5.26,.95,1.58,1.05,2.57,.85,3.68-.18,3.25-3.02,6.32-6.22,9.66-9.13,6.29-5.49,12.35-11.33,19.18-16.08,7.57-5.27,16.26-8.14,25.74-6.55,11.28,1.88,18.34,10.08,17.89,21.52-.25,6.28-1.56,12.55-2.89,18.72-.55,2.55-2.09,5.05-3.7,7.18-4.06,5.37-9.81,6.57-15.84,3.65-3.3-1.6-6.57-3.28-10.42-5.21,1.8,5.02,7.26,9.13,11.6,9.17,7.96,.09,15.93,.1,23.89,.11,16.19,.02,31.97,1.98,46.57,9.7,1.77,.94,3.8,1.38,5.59,2.29,.99,.5,2.3,1.41,2.43,2.29,.12,.82-.95,2.12-1.83,2.72-6.41,4.41-7.56,9.23-3.76,16.09,1.7,3.08,4.25,4.6,7.74,5.07,1.33,.18,2.52,1.46,3.77,2.23-1.1,1.02-2.04,2.61-3.31,2.95-7.4,1.95-14.88,3.58-22.32,5.38-2,.48-3.95,1.16-6.6,1.96,10.13,2.8,11.28,10.22,11.45,18.18,.15,6.74-.59,13.29-4.25,19.19-.14,.22-.08,.57-.16,1.2,.94,.24,1.87,.65,2.81,.69,11.24,.53,22.28,3.54,33.63,2.67,.1,0,.21-.02,.3,.02,2,.7,4,1.41,5.99,2.11-.79,1.83-1.28,3.88-2.43,5.45-4.42,6.03-5.34,12.5-2.86,19.45,1.26,3.54,3.61,6.15,7.11,7.84,4.09,1.97,4.26,4.54,.3,6.72-4.31,2.37-8.94,4.17-13.41,6.25-1.15,.53-2.25,1.18-3.31,1.74,.12,.41,.12,.56,.18,.59,8.97,3.94,8.66,12.35,9.26,20.04,.29,3.73-.61,7.59-1.27,11.34-.35,1.96-.09,3.06,1.96,3.59,2.24,.58,3.76,1.81,2.48,4.37-5.06,10.15-4.76,20.83-3.21,31.64,.05,.38,0,.76,0,1.31-3.42-3.84-4.18-13.13-2.21-27.28-2.08,3.25-3.86,5.9-5.52,8.63-4.27,7.05-10.38,12.28-16.99,16.95-1.57,1.11-3.75,1.35-5.34,2.44-2.85,1.95-3.24,5.19-3.53,8.33-.7,7.78,1.49,14.99,4.75,21.9,1.58,3.34,3.51,3.97,6.59,2.01,2.95-1.88,5.6-4.25,8.33-6.45,1-.81,1.89-1.75,3.14-2.94-2.51,8.28-11.88,15.55-19.73,15.61-7.14,.05-14.28,.01-21.45,.01-.19,2.5,.82,3.97,3.59,3.99,6.75,.06,13.53,.24,20.25-.25,2.34-.17,5.16-1.66,6.7-3.46,7.61-8.86,14.91-17.99,22.2-27.12,1.49-1.86,2.52-3.31,5.37-2.16,2.06,.83,4.58,.46,6.86,.83,5.67,.93,7.67,4.27,5.41,9.49-3.71,8.54-6.21,17.37-5.36,26.68,.44,4.82,1.95,9.61,3.53,14.22,1.28,3.74,4.52,5.34,8.45,5.89,13.66,1.93,27.34,3.79,40.93,6.13,5.71,.99,11.25,3.03,16.8,4.82,1.12,.36,1.91,1.77,2.84,2.7-1.12,.57-2.2,1.5-3.38,1.66-8.28,1.1-16.61,1.9-24.88,3.08-12.66,1.79-25.29,3.81-37.94,5.72-2.59,.39-5.18,.76-7.79,1.02-3.98,.39-6.92,2.39-9.78,6.17,2.36-.25,4.08-.35,5.77-.62,22.88-3.66,45.75-7.35,68.63-11.02,1.99-.32,3.99-.58,5.99-.77,3.41-.33,5.31,.77,6.14,4.01,2.96,11.55,3.03,23.11-.37,34.61-1.18,3.98-3.43,6.46-7.9,7.16-14.03,2.18-28.01,4.69-42.02,7.03-27.92,4.65-55.85,9.22-83.76,13.93-17.68,2.99-35.32,6.19-52.99,9.25-5.06,.88-10.13,1.75-15.23,2.26-1.92,.19-3.94-.65-5.91-1.01,.04-.33,.08-.66,.12-.98,62.37-11,124.73-22,187.67-33.1-.27-1.55-.62-3.54-1.1-6.27,1.19-1.21,1.59-3.28-.62-5.34,.45-.66,1.32-1.37,1.23-1.93-.15-.98-.88-1.86-1.37-2.79-.79,.65-2.17,1.24-2.25,1.98-.29,2.59-.12,5.23-.17,7.85-.02,1.15-.14,2.31-.22,3.46-.35-.01-.71-.02-1.06-.03v-27.58c1.92,1.23,.12,5.04,3.32,4.35,1.12-.24,1.81-2.48,2.63-3.71,.07,.31,.03,1.34,.52,1.96,.59,.75,1.65,1.63,2.44,1.58,.66-.05,1.25-1.36,1.85-2.11,.05-.06,0-.2,0-.3,.28-5.66,.19-5.73-5.47-5.68-5.12,.04-10.25,0-14.51,0,4.34-1.61,26.56-2.28,29.56-.43-.61,.2-1.15,.22-1.42,.5-.66,.65-1.19,1.42-1.78,2.14,1.15,.59,2.26,1.34,3.49,1.64,.31,.08,1.4-1.3,1.4-2.01-.02-5.02-1.89-6.68-7.02-5.98-14.77,2.01-29.53,4.09-44.28,6.25-10.96,1.6-22.06,2.68-32.82,5.19-30.86,7.19-62.49,9.72-93.48,16.01-8.49,1.72-17.06,3.01-25.58,4.59-6.84,1.27-10.48,5.13-11.07,12.02-.35,4.09-.17,8.22-.24,12.34-.01,.78-.08,1.55-.14,2.54-.47-.27-.86-.36-.92-.54-1.95-6.82-3.27-13.7-2.21-20.85,.65-4.36,3.02-7.35,7.26-8.33,7.65-1.77,15.32-3.49,23.06-4.76,24.35-3.99,48.73-7.77,73.1-11.72-13.39-.28-26.74-.46-40.09,1.68-16.1,2.58-32.32,4.46-48.48,6.69-3.09,.43-6.21,.84-9.22,1.64-5.91,1.57-11.71,1.21-17.62-.06-16.45-3.54-32.9-7.08-49.42-10.21-5.39-1.02-11.03-.91-16.56-1.03-7.34-.16-14.68-.04-21.27-.04,2.87,.9,6.6,2.07,10.32,3.24l-.18,.77c-2.61-.37-5.21-.74-7.82-1.11l-.14,.68c5.9,1.31,11.78,2.75,17.72,3.89,16.92,3.23,33.87,6.34,50.81,9.47,1.78,.33,3.59,.53,5.38,.75,1.72,.21,2.48,.94,2.04,2.83-1.38,5.88-2.61,11.73-1.76,17.92,.48,3.47-.32,7.1-.25,10.65,.11,5.52,2.22,10.43,5.39,14.83,1.38,1.92,2.98,3.94,5.93,3.07h-.01Zm-47.22-48.31c-3.33-.82-6.65-1.65-9.98-2.47l-.16,.72c3.19,.76,6.39,1.52,9.58,2.28,2.38,.71,4.67,2.13,7.35,.56-2.26-.36-4.53-.72-6.79-1.09Zm-81.62-157.34c1.97,1.95,4.38,2.41,6.87,2.65l.27-.94c-2.37-.58-4.75-1.15-7.12-1.73-2.41-1.33-4.81-2.67-7.22-4l.08-.28c6.05,1.71,12.1,3.43,18.15,5.14l.38-1.25c-2.94-1.12-5.86-2.31-8.83-3.33-3.32-1.14-6.69-2.15-10.05-3.19-2.1-.65-3.29,.54-3.95,2.28-.84,2.22,1.2,2.25,2.37,2.57,2.99,.82,6.04,1.41,9.06,2.09ZM394.81,112.06c-1.09-3.02-2.19-6.03-3.28-9.05l-.72,.25c1.16,3.28,2.31,6.56,3.47,9.84,.72,1.54,1.15,3.33,2.21,4.59,5.64,6.75,11.43,13.37,17.17,20.04l.61-.38c-6.39-10.67-12.77-21.33-19.16-32l-.44,.18c2.93,6.27,5.86,12.54,8.8,18.81l-.57,.33c-2.69-4.2-5.38-8.41-8.07-12.61Zm-127.63,54.93l-1.71-3.97-.86,.17c-.31,5.89-.67,11.78-.86,17.68-.03,.88,.58,2.02,1.26,2.64,2.56,2.34,5.28,4.51,7.93,6.74l.66-.61c-.6-4.28-5.13-5.77-7.01-9.2,2.44,1.54,4.88,3.08,7.32,4.62l.75-.95c-2.14-1.94-4.29-3.87-6.43-5.81l.31-.47c1.97,1.19,3.93,2.38,5.9,3.57l.59-.77c-2.19-1.98-4.73-3.69-6.48-6.01-1.72-2.28-2.64-5.17-3.91-7.79l.78-.51,1.24,.64c1.97,3.27,4.84,5.41,8.65,7.35-.97-2.69-4.4-5.59-8.14-7.33Zm268.02,184.48c.36-1.31,.73-2.63,1.29-4.69-2.89,3.47-5.28,6.33-7.66,9.19l.62,.59c.94-.83,1.87-1.66,2.81-2.49,.97-.86,1.95-1.72,2.92-2.57-2.1,5.16-3.85,10.63-11.24,9.92-.9-.09-1.92,1.07-2.89,1.65,.75,.96,1.31,2.3,2.29,2.81,3.95,2.06,7.58,.55,10.32-3.78,3.44-5.42,6.97-10.79,10.57-16.1,2.37-3.49,5.02-6.79,7.36-10.3,.84-1.27,1.14-2.89,1.69-4.36l-.67-.23c-3.45,4.84-6.9,9.67-10.35,14.51l-.87-.56c1.15-1.85,2.29-3.69,3.44-5.54l-.38-.23c-3.08,4.07-6.16,8.13-9.24,12.2ZM321.72,99.11c-1.78,3.95-3.56,7.9-5.34,11.85l.91,.42c.89-1.67,1.78-3.34,2.67-5.01l.54,.28-1.28,5.3,.58,.21,3.08-6.39c-.14,2.55-.74,4.85-.84,7.18-.04,.84,1.11,1.73,1.72,2.6,.69-.63,1.61-1.14,2.04-1.92,2.66-4.78,6.41-8.52,10.97-11.43,2.77-1.76,5.73-3.23,9.05-5.09-7.13-.1-12.62,2.67-17.59,6.84,4.33-6.48,10.67-8.98,18.68-9.26-9.45-3.36-17.44-1.87-24.69,3.95,3.55-5.48,9.01-7.91,15.11-7.86,5.04,.04,10.07,1.57,15.09,2.5,4.71,.87,9.49,.54,12.17-1.16-6.74,.1-12.53-1.91-18.24-4.66-2.8-1.34-6.2-1.79-9.36-1.94-12.22-.61-22.08,10.72-25.3,19.7-.35,.97,.18,2.24,.3,3.37l.71-.12c.73-1.8,1.46-3.6,2.19-5.4l.5,.16c-.32,1.91-.64,3.82-.97,5.77,2.51-3.41,4.9-6.66,7.28-9.9Zm64.66,15.25c-.72-1.11-1.44-2.21-2.16-3.32-.42,.49-1.2,.99-1.19,1.47,.02,2.45,2.07,1.52,3.36,1.83-1.99,1.53-4.07,2.79-4.01,5.93,.14,7.53-.09,15.07,.06,22.6,.01,.77,1.52,2.14,2.36,2.17,4.82,.15,9.64,.04,14.46-.11,1.22-.04,2.42-.55,4.1-.97-1.97-2.93-3.83-5.31-5.28-7.91-3.99-7.18-7.82-14.46-11.71-21.7Zm38.58-15.19c3.28,2.93,6.56,5.85,9.7,8.65,.67-2.74-.52-5.52-2.86-7.37-4.94-3.9-9.93-7.87-15.38-10.96-4.87-2.76-10.49-2.97-15.56-1.78,3.21,.76,6.75,1.59,10.29,2.43-4.61,.11-9.23,.21-13.84,.32,11.72,4.11,12.43,4.44,14.72,7.75-6.64-4.37-13.63-5.43-20.48-7,11.93,8.25,21.3,18.91,30.45,29.93,2.56-7.51-3.93-10.64-6.87-15.63,2.9,2.34,5.8,4.68,8.7,7.02l.53-.62c-2.07-2.48-4.14-4.97-6.2-7.45l.34-.34,8,6.39,.65-.67c-1.51-1.68-3.03-3.36-4.54-5.04l.66-.61c2.78,2.6,5.57,5.21,8.35,7.81-.13-2.13-.63-4.24-1.69-6.01-1.44-2.41-3.3-4.56-4.98-6.82Zm63.66,65.39h0c-.82-2.26-2.54-3.31-4.83-3.51-2.61-.22-5.22-.39-7.82-.57-8.63-.57-17.27-1.04-25.89-1.74-2.65-.21-4.25,.56-4.32,3.22-.28,9.74-.44,19.48-.62,29.22-.04,2.11,1.38,2.37,3.06,2.36,6.95-.05,13.91,.06,20.85-.16,3.6-.11,7.22-.61,10.77-1.23,12.28-2.13,15.66-21.17,8.8-27.6Zm-211.12,275.83c-5.21-1.27-10.42-2.55-15.63-3.82-.14,.42-.27,.83-.41,1.25,.79,.38,1.55,.91,2.38,1.13,2.81,.72,5.63,1.52,8.49,1.91,1.67,.22,3.44-.29,5.16-.47-.6,2.32,1.37,1.88,2.45,2.12,6.04,1.35,12.11,2.59,18.17,3.87l-.13,.66c-4.26-.77-8.52-1.54-12.77-2.31l-.12,.69c8.35,1.53,16.7,3.06,25.05,4.59-.39,.54-.68,.57-.96,.53-12.55-1.85-25.1-3.75-37.67-5.5-1.81-.25-3.72,.27-5.59,.43l-.07,1.17c1.07,.42,2.1,.95,3.2,1.24,13.32,3.61,26.59,7.43,39.99,10.7,21.73,5.3,43.54,10.26,65.33,15.27,1.43,.33,3.65,1.42,4.27-1.02,.12-.47-2.14-2-3.48-2.32-18.04-4.28-36.11-8.44-54.17-12.63-1.28-.3-2.55-.61-3.82-.93-1.15-.29-2.29-.59-3.43-.89l.24-.77c16.69,3.82,33.38,7.64,50.07,11.46,.31-.38,.61-.76,.92-1.14-.71-1.53-1.02-3.72-2.21-4.44-1.66-1-4.27-2.1-5.43,2.23-.67-4.42-3.39-4.18-5.89-4.56-3.31-.51-6.59-1.28-9.88-1.94l.15-.61c2.49,.39,4.99,.78,7.48,1.17l.06-.45-1.65-.7c.6-.25,1.03-.43,2.02-.84-9.79-2.31-18.92-4.46-28.05-6.61l.18-.82c9.06,1.97,18.12,3.94,27.19,5.91,.21-.42,.42-.83,.62-1.25-.95-.66-1.81-1.69-2.85-1.93-5.69-1.31-11.43-2.41-17.15-3.62-2.88-.61-5.74-1.3-9.12-2.07,.78-.35,.97-.53,1.13-.5,8.01,1.31,16.02,2.67,24.04,3.93,.92,.15,1.93-.26,2.9-.41-.82-.67-1.55-1.75-2.47-1.95-26.53-5.51-53.08-10.93-79.63-16.33-1.06-.22-2.21-.03-3.31-.03l-.17,1.16c16.94,5.02,34.3,8.42,51.45,12.66-8.78-1.32-17.47-2.97-26.13-4.77-8.56-1.78-17.08-3.71-25.62-5.58l-.34,1.48c9.74,2.46,19.49,4.92,29.23,7.37l-.12,.46c-4.64-.74-9.28-1.48-13.92-2.22Zm27.05-66.2l.03-.77c1.08-.07,2.16-.23,3.23-.2,4.93,.15,9.86,.42,14.79,.53,19.83,.45,39.67,1.11,59.51,1.23,34.07,.21,68.15,.07,102.22,.09,1.61,0,3.22,.22,4.83,.23,11.99,.08,23.99,.16,35.98,.14,.63,0,1.25-.88,1.88-1.36-.55-.61-.98-1.5-1.67-1.77-1.27-.5-2.67-.64-4.02-.93l.13-.36c2.04-.29,4.08-.58,6.11-.86l-.09-1.16h-91.75v-.2l58.75,.94c-4.59,.74-9.19,1.17-13.79,1.1-34.55-.52-69.1-1.13-103.65-1.73-8.06-.14-16.12-.45-24.17-.5-19.74-.12-39.49-.4-59.23-.11-15,.22-30,1.04-44.98,1.97-5.69,.35-11.32,1.7-16.95,2.74-1.13,.21-2.13,1.05-3.2,1.6l.25,1.16h33.38v.92c-9.57,.25-19.12,.5-28.67,.75-1.41,.04-2.89-.23-4.21,.13-.91,.24-1.6,1.31-2.38,2.01,.75,.59,1.42,1.36,2.27,1.7,.69,.28,1.59,.07,2.4,.07,12.3,.06,24.6,.08,36.9,.2,2.38,.02,4.75,.4,7.13,.61-.68,.5-1.35,.55-2.01,.56-14.21,.21-28.41,.39-42.62,.67-1.4,.03-3.57-.92-3.78,1.55-.03,.33,2.57,1.26,3.95,1.27,28.73,.11,57.46,.1,86.19,.21,3.79,.01,7.57,.51,11.36,.78-15.11,.37-30.21,.27-45.3,.4-17.84,.14-35.67,.45-53.51,.79-.98,.02-1.94,1.06-2.9,1.63,1.02,.52,2.04,1.51,3.05,1.49,12.89-.22,25.78-.74,38.67-.86,17.54-.16,35.08-.03,52.62-.03,1.08,0,2.16,0,3.24,0-9.94,.6-19.88,.98-29.82,1.18-16.02,.33-32.04,.5-48.06,.81-5.54,.11-11.07,.4-16.61,.66-1.57,.07-2.73,.71-2.61,2.6,.12,1.9,1.44,1.93,2.81,1.87,3.62-.15,7.24-.47,10.87-.47,40.02-.03,80.05-.04,120.07,.02,3.67,0,7.35,.5,11.02,.77-1.13,.42-2.23,.42-3.33,.42-21.07,.02-42.14-.05-63.21,.07-23.58,.14-47.17,.44-70.75,.71-2.06,.02-4.12,.4-6.18,.61l-.22,1.13c1.25,.35,2.5,.99,3.75,1,17.24,.08,34.48,.02,51.72,.13,5.42,.04,10.84,.5,16.26,.76-.4,.33-.79,.4-1.18,.4-22.17,.26-44.34,.53-66.51,.76-4.93,.05-6.61-1.19-7.97-6.05-1.79-6.4-2.14-12.89-.91-19.45,.11-.61,.02-1.26,.02-2.12-1.12,.35-1.96,.64-2.83,.87-3.06,.79-3.94-.08-3.25-3.21,.75-3.38,3.32-4.81,6.32-5.25,6.67-.99,13.36-2.17,20.07-2.42,18.02-.66,36.06-1,54.09-1.23,28.42-.36,56.84-.51,85.27-.82,4.53-.05,9.05-.46,14.15-.73-5.51-.25-10.43-.6-15.36-.68-15.21-.26-30.43-.56-45.65-.58-17.23-.03-34.47,.05-51.7,.42-21.75,.47-43.49,1.31-65.24,1.94-2.61,.08-4.26,1.26-4.77,3.74-.66,3.25-1.53,6.54-1.56,9.82-.06,9.05,.02,18.11,.55,27.14,.27,4.59,2.43,6.02,7.03,6.17,6.54,.21,13.09,.53,19.64,.56,49.9,.25,99.79,.4,149.69,.66,15.12,.08,30.23,.38,45.34,.57,16.63,.21,33.25,.45,49.88,.6,12,.11,23.99,.12,35.99,.09,2.6,0,5.31-.03,7.79-.7,10.58-2.83,17.15-10.86,24.23-19.48-7.12,6.97-13.09,14.16-23.22,15.08-4.47,.41-8.88,2.1-13.31,2.1-12.89-.02-25.78-.63-38.66-.96-16.32-.42-32.63-.87-48.95-1.18-15.42-.3-30.83-.58-46.25-.6-19.85-.02-39.71,.38-59.56,.35-33.16-.05-66.32-.29-99.48-.49-1.3,0-2.75-.01-3.84-.58-1.14-.59-2.04-1.77-2.8-2.86-.28-.39-.07-1.5,.32-1.86,.29-.28,1.48-.13,1.8,.24,2.39,2.72,5.54,2.46,8.68,2.47,58.36,.2,116.73,.36,175.09,.68,16.62,.09,33.24,.85,49.86,1,21.07,.19,42.14,.08,63.21,.05,1.38,0,2.76-.38,4.14-.59l-.09-.92h-9.81c.56-.66,1.12-.71,1.69-.75,4.22-.25,8.45-.44,12.66-.78,.71-.06,1.36-.77,2.04-1.18-.66-.5-1.28-1.07-1.98-1.48-.3-.18-.79-.05-1.19-.06-8.96-.18-17.93-.43-26.89-.54-24.08-.29-48.17-.51-72.25-.76-3.23-.03-6.46,.08-9.68-.05-4.78-.19-9.55-.54-14.32-.82,10.99,.2,21.96,.2,32.92,.2,19.15,0,38.31,0,57.46,.05,4.03,0,8.05,.29,12.08,.32,6.85,.06,13.71,.09,20.56-.06,.85-.02,1.67-1.18,2.5-1.82-.81-.7-1.53-1.83-2.44-2.01-2.16-.41-4.4-.46-6.61-.48-32.35-.29-64.71-.51-97.06-.84-4.9-.05-9.8-.54-14.7-.82v-.1h120.18c.23-2.51,.28-4.34-2.98-4.39-19.54-.35-39.08-.81-58.62-1.27-7.35-.17-14.7-.4-22.04-.69-1.7-.07-3.39-.47-5.08-.73,2.05-.25,4.03,.1,6.02,.13,26.4,.39,52.79,.75,79.19,1.09,3.62,.05,4.25-.86,3.47-4.84-10.74,.46-21.52,.92-32.31,1.38,5.79-1.12,11.6-1.54,17.42-1.99,4.52-.35,9.04-.66,13.54-1.18,.7-.08,1.83-1.22,1.79-1.81-.05-.88-.77-2.1-1.54-2.48-1.01-.49-2.36-.38-3.56-.38-9.15-.04-18.31,0-27.46-.05-20.26-.11-40.51-.21-60.77-.41-15.62-.16-31.23-.51-46.84-.72-17.23-.24-34.45-.38-51.68-.64-9.27-.14-18.53-.41-27.79-.64-.56-.01-1.12-.16-1.67-.25Zm-64.52-137.22l.35,1.22c10.96,0,21.93-.05,32.89,0,46.67,.23,93.34,.49,140.01,.74,1.91,.01,3.83,.15,5.74,.18,7.66,.13,15.31,.24,22.97,.35,1.43,.02,2.2-.38,2.08-2.12-.43-5.82-.71-11.66-1.02-17.49-.19-3.52-.36-7.04-.45-10.56-.06-2.39-1.71-2.6-3.34-2.28-.85,.17-2.2,1.24-2.18,1.87,.24,9.26,.68,18.52,1.06,27.77,.02,.49-.15,.99-.23,1.49-.59-.66-.79-1.3-.82-1.96-.42-8.65-.78-17.3-1.29-25.95-.06-1.1-.82-3.03-1.4-3.09-4.45-.46-8.95-.56-13.4-.77v30.76c-.66-.74-.77-1.5-.79-2.26-.22-8.46-.49-16.92-.61-25.38-.03-2.16-.65-3.11-2.94-3.07-3.38,.06-3.67,.36-3.52,3.89,.23,5.33,.33,10.67,.44,16,.02,.84-.24,1.68-.37,2.52l-.92-.13c0-6.43-.07-12.86,.04-19.29,.04-2.23-.75-3.09-2.98-3-5.54,.21-11.07,.38-16.61,.43-27.72,.24-55.44,.4-83.15,.67-15.22,.15-30.43,.52-45.65,.73-5.67,.08-11.34,.01-17.01,.01v1.6h52.12c-20.27,1.09-39.89,3.75-59.18,.27,1.15,4.64,2.52,9.02,3.26,13.5,.78,4.71-.55,9.19-3.08,13.3Zm227.99,67.97l.04,1.38c-1.21,.18-2.42,.52-3.64,.53-8.25,.05-16.5,.1-24.75,0-8.66-.1-17.32-.43-25.98-.53-21.05-.25-42.11-.45-63.16-.63-3.51-.03-4.33,.74-4.46,4.23-.29,7.85-.6,15.7-.59,23.55,.01,4.72,.62,9.43,.97,14.14,.14,1.83,1.15,2.61,2.99,2.65,3.52,.08,7.04,.39,10.56,.41,13.1,.08,26.2-.03,39.3,.15,21.25,.29,42.49,.77,63.74,1.13,4.04,.07,4.43-.47,4.25-4.56-.25-5.53-.63-11.06-.57-16.59,.12-9.51,1.26-18.89,4.95-27.79,.4-.95,.54-2.01,.94-3.55-1.81,0-3.1,0-4.38,0-23.57,.2-47.14,.43-70.72,.59-14.81,.1-29.63,.1-44.44,.17-1.1,0-2.25,0-3.29,.28-.52,.14-1.17,.95-1.17,1.46,0,.48,.69,1.15,1.23,1.4,.6,.27,1.38,.2,2.08,.22,11.48,.18,22.96,.46,34.44,.51,24.99,.11,49.98,.08,74.97,.17,2.23,0,4.45,.45,6.67,.69Zm-218.95,171.05v1.39c-3.59,0-7.2,.05-10.81-.02-2.31-.05-2.51,1.58-2.77,3.2-.31,1.95,1.05,2.09,2.44,2.18,2.51,.16,5.02,.4,7.53,.5,7,.27,13.99,.48,20.99,.72-7.75,.36-15.48,.37-23.22,.35-2.01,0-4.04-.27-6.03-.08-.69,.07-1.77,1.11-1.8,1.75-.03,.69,.83,1.85,1.52,2.06,1.52,.45,3.17,.53,4.78,.57,11.68,.29,23.37,.54,35.05,.81,.37,0,.74,.13,1.99,.38-4.64,.29-8.34,.73-12.05,.72-9.47-.04-18.93-.25-28.4-.46-2.15-.05-3.2,.68-3.06,2.96,.13,2.04-.21,4.13,2.91,4.19,4.63,.09,9.26,.35,13.88,.63,3.38,.2,6.75,.55,10.12,.83-7.88,.13-15.73,.1-23.57,.19-.87,.01-1.73,.77-2.6,1.19,.73,.86,1.42,1.76,2.23,2.55,.22,.22,.78,.11,1.18,.13,14.78,.81,29.56,1.61,44.33,2.44,1.93,.11,3.86,.36,5.79,.54-3.36,.56-6.68,.66-9.99,.54-13.28-.48-26.56-1.07-39.84-1.48-.99-.03-2.01,.96-3.02,1.47,.85,1.33,1.6,2.76,2.61,3.95,.32,.38,1.34,.2,2.05,.22,7.65,.25,15.31,.44,22.96,.76,3.35,.14,6.68,.55,10.02,.84-6.65,.43-13.28,.48-19.92,.41-4.53-.05-9.06-.34-13.59-.38-.72,0-1.44,.71-2.16,1.1,.56,.73,.97,1.84,1.7,2.1,1.29,.47,2.76,.57,4.16,.59,16.53,.29,33.05,.51,49.58,.79,9.77,.17,19.54,.4,29.31,.64,3.72,.09,7.45,.39,11.17,.35,2.98-.03,4.25-1.46,3.72-4.18-1.96-10.08-1.59-20.26-1.51-30.44,.05-5.62-.8-6.71-5.95-8.7-11.32-4.38-23.05-6.46-35.16-6.48-16.33-.03-32.66-.04-48.99,0-2.21,0-4.42,.27-6.62,.54-1.98,.24-3.7,3.3-3.42,5.93,.26,2.41,2.2,1.63,3.53,1.68,2.97,.12,5.95,.04,8.93,.04Zm64.32-125.77v-.13c4.44,0,8.87-.03,13.3,.01,2.21,.02,3.31-.79,3.37-3.18,.32-12.97,.75-25.95,1.03-38.92,.01-.7-1.06-2.03-1.63-2.04-6.23-.08-12.46,.1-18.69,.09-27.09-.04-54.17-.09-81.21,1.87-3.1,.22-6.23,.39-9.3,.86-2.57,.39-4.44,1.91-4.98,4.62-1.92,9.51-1.62,19.03,.25,28.49,.61,3.1,2.67,5.14,6.11,5.32,6.13,.33,12.25,.82,18.38,1,24.45,.72,48.91,1.34,73.37,2Zm122.89,150.99l-1.04-.06c.24,5.01,.38,10.03,.75,15.03,.2,2.68,1.77,3.99,4.64,4.06,18.93,.49,37.86,1.12,56.79,1.62,4.91,.13,5.25-.64,4.87-5.44-.69-8.72-1.14-17.47-1.55-26.21-.13-2.7,.41-5.43,.3-8.14-.13-3.1-1.77-4.6-4.84-4.6-2.2,0-4.46,.14-6.6,.62-6.95,1.54-13.95,2.97-20.76,5.01-3.81,1.14-7.38,3.24-10.87,5.23-1.16,.66-2.14,2.24-2.48,3.58-.58,2.3-.6,4.75-.85,7.14l-.73,.02-.5-8.45c-4.57,.48-4.77,.69-4.75,4.99,0,2.5,0,5,0,7.5h-.51c-.33-2.46-.67-4.92-1.05-7.76-.36,3.69-.68,6.96-1,10.24h-.6v-9.31c-.35-.03-.69-.07-1.04-.1l-1.58,10.53-.47-.02c-.43-1.63-.85-3.27-1.28-4.9l-.89,.08v9.14l-.61-.04c-.45-3.42-.9-6.85-1.35-10.27l-1.13,.13v14.44h-.88v-14.07Zm163.8-42.28c-1.81,.61-3.36,.85-4.56,1.62-1.33,.85-2.44,2.11-3.48,3.33-3.75,4.39-8.63,6.2-14.23,6.11-6.04-.1-12.09-.28-18.11-.73-12.69-.95-25.14,.25-37.41,3.6-2.43,.66-3.39,1.96-3.34,4.54,.15,8.06-.07,16.13,.14,24.19,.15,5.93,.68,11.86,1.17,17.78,.3,3.54,1.58,4.93,4.48,4.96,7.04,.07,14.08,.02,21.12,.02v-.46c-6.14-.31-12.29-.63-18.45-.94l.03-1.08,7.06-.56,.15-1.17c-1.39-.33-2.76-.9-4.16-.94-2.01-.05-3.23-.55-3.41-2.81-.64-8.1-1.37-16.19-2.04-24.29-.02-.2,.29-.42,.77-1.07,.14,1.33,.23,2.17,.33,3.02,.64,5.6,1.29,11.2,1.92,16.8,.31,2.71,1.82,2.97,4.06,2.1-.14-10.53-.95-20.98,1.63-31.24,.2,1.91-.06,3.81,0,5.7,.29,9.04,.53,18.09,1.13,27.11,.13,1.9,1.26,4.44,2.75,5.4,3.98,2.56,8.75,1.87,13.46,2.57-.11-1.21-.11-1.81-.22-2.39-1.96-10.16-2.35-20.42-1.83-30.71,.21-4.1,1.01-8.19,1.86-12.21,.16-.77,1.84-1.21,2.81-1.81,.18,1.01,.63,2.05,.49,3.01-.22,1.57-1.19,3.08-1.21,4.62-.1,8.65-.37,17.32,.16,25.94,.3,4.85,1.84,9.67,3.24,14.39,.34,1.13,2.34,1.77,3.57,2.63,.22-1.24,.8-2.54,.6-3.71-2.35-13.67-3.37-27.38-1.91-41.23,.52-4.9,1.31-5.82,6.14-5.7,4.93,.12,9.86,.52,14.79,.56,8.69,.07,17.97-7.41,20.49-16.96ZM268.97,118.52l.03-1.04c14.72-1.09,29.44-2.17,44.16-3.26-2-.85-4.12-1.54-6.23-1.53-8.46,.02-16.91,.38-25.36,.38-7.25,0-14.49-.41-21.74-.49-3.75-.04-4.12,.78-2.24,4.02,3.84,6.61,5.04,13.48,2.32,20.85-1.51,4.09-.88,5.04,3.54,5.12,17.52,.32,35.05,.51,52.57,.81,4.06,.07,7.2-1.58,9.71-4.63,2.95-3.58,5.86-7.18,8.76-10.79,.45-.56,.74-1.25,1.05-1.78-20.62,2.05-41.1,1.72-61.57,1.55l-.03-1.03c17.01-.28,34.02-.56,51.03-.83l.48-1c-2.12-2.18-4.2-4.42-6.38-6.54-1.72-1.67-3.68-2.45-6.27-2.22-10.32,.93-20.65,1.71-31,2.36-4.26,.27-8.55,.04-12.83,.04Zm114.53,160.66l.42-.07c-.83-7.48-1.68-14.96-2.47-22.45-.29-2.74-1.65-3.75-4.41-3.65-8.34,.32-16.7,.58-25.05,.59-3.01,0-3.77,1.1-3.68,3.9,.34,10.36,.47,20.72,.75,31.08,.05,1.8,.14,3.71,.79,5.34,.39,.97,1.93,2.13,2.93,2.11,8.65-.17,17.29-.66,25.93-.88,2.62-.06,4.01-1.06,4.16-3.62,.25-4.11,.41-8.23,.61-12.35Zm36.77,216.45c-10.97-.4-22.01-.14-32.88-1.37-11.03-1.26-21.9-3.99-33.54-6.21,0,5.52-.04,10.93,.02,16.34,.03,3.22,.05,6.45,.38,9.65,.29,2.84,1.89,4.42,5.03,4.49,19.74,.47,39.47,1.04,59.2,1.54,.8,.02,1.6-.27,2.41-.42l.07-.82c-1.67-.57-3.33-1.13-5.56-1.89,2.34-.34,4-.57,5.66-.81,0-.38,0-.76,.01-1.14-7.88-2.43-16.36-1.44-24.3-3.79,8.14,.38,16.29,.76,24.43,1.13l.07-1.35c-10.2-1.12-20.4-2.24-30.61-3.35,10.04-.76,20.06,1.4,30.04-.63-2.66-.48-5.33-.4-8-.5-2.81-.1-5.63-.32-8.43-.54-2.71-.21-5.42-.42-8.12-.75-2.65-.32-5.29-.79-7.93-1.19l.12-.57c10.32,.34,20.63,.69,30.95,1.03-2.72-.86-5.38-1.32-8.05-1.63-11.29-1.32-22.6-2.58-33.89-3.93-1.63-.19-3.22-.74-4.83-1.12,5.42,.23,10.69,1.06,15.99,1.6,5.41,.55,10.84,.78,16.26,1.24,7.22,.61,13.05,.17,16.01-1.61-11.06,1.3-21.46,.3-31.77-1.25-10.28-1.55-20.47-3.7-30.7-5.58l.18-1.2c20.43,3.91,40.91,7.08,61.79,4.61Zm95.67-378.88l.24-.78c-4.84-2.35-9.58-4.93-14.54-7-8.4-3.5-17.07-5.35-26.24-3.38-3.25,.7-5.25,2.39-5.86,5.64-.61,3.26-1.43,6.52-1.68,9.81-.65,8.75-1.07,17.52,1.42,26.1,1.62,5.59,3.32,6.18,8.9,2.97-1.35,.2-2.23,.51-3.04,.39-.88-.13-1.69-.67-2.53-1.02,.64-.75,1.15-1.81,1.96-2.16,1.06-.45,2.36-.37,3.56-.45,2.21-.15,4.47,.01,6.62-.41,9.18-1.81,18.33-3.78,27.48-5.73,.61-.13,1.15-.57,1.96-.98-5.01-4.45-6.34-9.64-4.68-15.79,.97-3.6-.27-6.37-3.63-8.38-9.22-5.5-19.08-7.86-29.77-6.73-1.09,.12-2.21,.02-3.32,.02l-.22-1.33c2.31-.6,4.68-1.87,6.92-1.67,5.78,.5,11.68,1.05,17.19,2.71,5.23,1.57,10,4.62,15.02,6.92,1.33,.61,2.84,.85,4.26,1.26Zm-101.89,60.67h.32c-.24-5.34-.35-10.67-.77-15.99-.34-4.37-1.19-4.94-5.67-5.16-7.54-.36-15.07-.72-22.61-1.19-2.22-.14-3.14,.59-3.08,2.86,.28,11.27,.5,22.55,.73,33.83,.05,2.6,1.16,3.75,3.94,3.62,7.54-.35,15.09-.46,22.64-.68,3.48-.11,4.42-1.02,4.48-4.59,.07-4.23,.02-8.46,.02-12.69Zm60.88,114.79v-.43c4.93,0,9.87,0,14.8,0,2.68,0,3.7-1.44,3.63-4.04-.24-9.45-.32-18.9-.64-28.34-.15-4.42-1.05-5.13-5.61-5.09-7.96,.08-15.91,.38-23.87,.38-2.8,0-3.6,.99-3.58,3.73,.09,10.46,0,20.93-.18,31.39-.04,2.03,.76,2.42,2.44,2.41,4.33-.03,8.67-.01,13-.01Zm-192.9-136.02c-5.91-1.59-12.46-3.35-19-5.1l-.7,.44c1.29,.92,2.53,1.92,3.87,2.75,2.4,1.47,4.81,2.94,7.31,4.23,2.49,1.29,4.12,3.14,4.71,5.91,1.77,8.33,1.42,16.64-.56,24.84-1.31,5.43-4.24,6.17-8.47,2.54-1.55-1.33-3.08-2.67-4.62-4.01,2.5,6.75,11.22,11.45,17.4,9.95-4.14-2.64-3.97-5.37,.85-8.35-.35,.71-.54,1.13-.77,1.52-1.73,2.96-1.11,5.08,2.17,5.37,5.99,.52,12.03,.53,18.05,.56,2.4,0,3.54-1.58,3.54-4,0-7.76,.07-15.51,0-23.27,0-.87-.52-2.25-1.16-2.5-3.19-1.26-2.47-2.81-.67-4.68,.48-.5,1.12-1.1,1.19-1.71,.21-1.93,.51-3.98,.03-5.78-.14-.52-2.76-.49-4.25-.52-.99-.02-1.99,.29-2.98,.45-6.11,.99-12.22,1.97-18.32,2.96l-.16-.45,2.55-1.14Zm68.46,94.39l-.15-.6c-29.44-.46-58.89-.93-87.45-1.37,4,.93,8.87,2.2,13.79,3.16,6.73,1.3,9.89,5.74,10.97,12.03,1.5,8.69,.88,17.27-1.81,25.66-.51,1.59-1.58,2.99-2.34,4.51-.45,.9-1.34,2.17-1.04,2.72,.49,.89,1.74,1.56,2.8,1.89,1.01,.31,2.2,.13,3.3,.05,5.32-.36,10.63-.86,15.96-1.1,2.81-.13,4.42-1.19,4.45-4.1,.13-11.86,.28-23.72,.3-35.58,0-2.61-1.78-3.6-4.28-3.58-4.94,.04-9.87,.06-14.81-.05-1.3-.03-2.6-.55-3.89-.85l.18-1.61,64.02-1.19Zm102.4,25.75h-.02c0-2.82,.12-5.64-.03-8.45-.18-3.4-.5-6.81-.93-10.19-.28-2.22-1.54-3.6-3.98-3.76-7.12-.49-14.23-1.03-21.34-1.59-2.52-.2-3.36,.91-3.25,3.38,.3,6.93,.53,13.86,.58,20.8,.04,4.32-.37,8.64-.43,12.96-.05,3.52,.45,4.01,4.05,3.93,7.44-.17,14.87-.49,22.31-.65,2.21-.05,3.06-1.05,3.04-3.15-.04-4.43-.01-8.85-.01-13.28Zm-63.36,.76h.52c0,4.53,.03,9.07-.01,13.6-.02,2.22,.86,3.38,3.22,3.35,6.75-.07,13.51-.08,20.26-.08,2.01,0,2.95-.99,3.04-2.93,.08-1.71,.33-3.42,.28-5.13-.29-10.05-.61-20.11-1.02-30.16-.11-2.76-1.68-4.1-4.58-3.98-6.14,.25-12.28,.44-18.42,.49-2.66,.02-3.4,1.11-3.34,3.69,.16,7.04,.06,14.09,.06,21.14Zm-162.26,237.51c-.77-5.58-1.69-10.81-2.17-16.08-.8-8.9-.15-17.73,2.73-26.25,.71-2.1,2.27-3.91,3.44-5.85l1.1,.56c-.31,1.33-.56,2.67-.94,3.97-4.04,14.01-3.73,28.04-.11,42.07,.42,1.61,.99,3.33,3.16,2.84,2.49-.57,1.15-2.45,.84-3.68-2.32-9.26-3.27-18.64-2.69-28.16,.37-5.96,1.19-11.89,4.34-17.12,2.77-4.6,6.12-8.66,12.63-10.05-3.47,2.6-6.31,4.73-9.16,6.86l.5,.97h55.66c-14.09-3.03-28.53-1.16-42.73-3,7.91-2.33,16.02-1.05,24.06-1.09-5.03-1.66-10.06-3.13-15.1-4.53-2.64-.74-4.92-1.92-5.93-4.65-.73-1.97-2-2.27-3.8-1.63-14.44,5.09-28.89,10.13-43.31,15.27-1.77,.63-3.69,1.49-4.92,2.81-.99,1.07-1.59,3.12-1.32,4.53,.18,.93,2.13,1.87,3.43,2.16,1.73,.38,3.64-.07,5.41,.2,5.7,.87,9.52-1.11,11.28-6.79,.25-.81,1.37-1.35,2.09-2.01l.86,.7c-.31,.9-.48,1.88-.94,2.7-4.61,8.36-5.34,17.45-4.81,26.7,.27,4.7,1,9.39,1.89,14.01,.4,2.07,1.48,4.19,4.48,4.53ZM464.19,247.24c-.8-2.97-2.41-3.76-4.47-3.87-10.95-.62-21.9-1.56-32.87-1.75-24.48-.42-48.96-.45-73.44-.65-24.38-.2-48.76-.42-73.14-.59-2.81-.02-5.63,.31-8.44,.33-12.68,.06-25.37,0-38.05,.19-1.44,.02-4.1,1.34-4.07,1.94,.14,2.54,2.54,2.01,4.23,2,8.56-.07,17.12-.39,25.68-.37,14.2,.03,28.41,.22,42.61,.4,30.92,.38,61.85,.78,92.77,1.2,14.91,.2,29.81,.42,44.72,.68,6.24,.11,12.48,.35,18.72,.51,1.77,.04,3.54,0,5.75,0Zm-28.86-133.41c4.89,.23,9.52,.45,14.15,.67l.05,.79c-.92,.1-1.85,.26-2.77,.29-2.82,.08-5.66,.29-8.46,.1-6.02-.42-8.91,3.54-12.39,8.43h21.87c0,.32,0,.63,.01,.95-1.03,.08-2.06,.21-3.09,.22-6.25,.05-12.5,.12-18.75,.09-1.72,0-2.71,.53-3.5,2.16-1.94,4.02-3.88,4.28-7.14,1.12-2.35-2.28-4.63-4.63-6.94-6.95,5.2,8.21,11.12,15.8,18.56,22.01,1.54,1.28,4.08,1.7,6.21,1.87,5.32,.41,10.67,.34,15.99,.67,2.49,.15,3.25-.8,3.02-3.13-1.2-12.21-.79-24.35,1.88-36.36,.44-2-.37-2.53-2.16-2.53-3.23,0-6.45-.1-9.68-.1-3.63,0-4.01,.48-3.54,4.44l3.88,.54c-2.84,.57-6.08,.11-7.2,4.74Zm-103.62,165.44l-.9-.02c-.24-2.9-.55-5.79-.72-8.7-.25-4.52-.48-9.05-.57-13.58-.04-2.11-.95-2.86-2.96-2.77-2.21,.1-4.45,.18-6.65,0-2.78-.22-3.64,.81-3.59,3.62,.15,9.35,.02,18.71,0,28.07,0,2.82-.17,5.66,.12,8.46,.09,.91,1.35,2.43,2.1,2.45,6.24,.13,12.5,.14,18.73-.17,3.92-.2,4.84-1.38,4.78-5.46-.13-8.76-.37-17.52-.69-26.28-.1-2.81-.48-5.62-.95-8.39-.13-.78-1.04-1.44-1.59-2.15-.33,.89-.93,1.77-.96,2.67-.11,3.64-.05,7.28-.05,10.93h-.89l-1.27-13.1-1.08,.07v15.03c-.9-4.41-1.13-8.81-1.57-13.2-.09-.85-.99-1.62-1.51-2.43-.31,.9-.91,1.81-.87,2.69,.3,7.42,.71,14.83,1.09,22.25Zm169.18-24.37c0,11.5-.03,22.86,.03,34.21,0,1.94,1.44,2.54,3.15,2.4,7.52-.6,15.05-1.08,22.55-1.9,3.67-.4,6.27-4.21,6.09-8.26-1.52,1.46-2.76,3.23-4.46,4.11-1.77,.92-3.97,1.14-6.02,1.38-1.86,.22-3.76,.05-5.64,.05,3.78-2.26,8.72-.26,11.66-4.91h-13.37c2.93-.76,5.83-1,8.72-1.31,2.74-.29,5.8,.46,8.29-2.55h-17.18l-.06-.36c5.99-.85,11.98-1.7,17.97-2.55l-.11-1.45h-18.9v-.76c6.6-.69,13.18-1.37,19.77-2.06l-.03-1.28-16.81-1.07v-.34c5.82-.54,11.64-1.09,17.46-1.63-.02-.54-.04-1.09-.06-1.63-5.4-.25-10.79-.49-16.19-.74l-.03-.54,16.2-1.42,.05-1.04c-1.68-.26-3.36-.61-5.05-.76-1.8-.17-3.62-.17-5.43-.21-1.67-.03-3.33,0-5,0l.05-.66c5.19-.4,10.38-.8,16.19-1.24-2.5-2.14-24.05-4.05-33.83-3.46Zm-34.35-55.72c-1.19,0-2.28-.02-3.36,0-6.65,.16-13.29,.43-19.94,.49-30.23,.28-60.47,.28-90.69,.84-13.17,.24-26.31,1.9-39.49,2.36-13.08,.46-26.19,.39-39.28,.27-14-.13-27.99-.61-41.99-.84-1.03-.02-2.08,.75-3.11,1.16l.24,1.29c1.52,.09,3.04,.27,4.57,.27,74.79,0,149.58-.04,224.38,.1,4.43,0,7.45-.86,8.68-5.95Zm36.91,18.07c4.92-.83,9.84-1.67,14.76-2.5-3.61,1.59-7.35,2.64-11,3.92-1.55,.55-2.92,1.6-4.38,2.42l.42,.92c6.18-.82,12.37-1.64,18.55-2.47-.95,.89-2,1.16-3.06,1.41-4.51,1.04-9.04,2.04-13.54,3.14-1.76,.43-3.07,1.64-2.3,3.49,.28,.68,2.09,1.13,3.12,1.02,4.89-.55,9.76-1.33,14.63-2.02-4.48,1.57-9.04,2.78-13.52,4.26-1.23,.4-2.21,1.57-3.3,2.38l.53,.91c3.85-.77,7.7-1.55,11.55-2.32l.06,.32c-3.78,1.57-7.56,3.14-11.34,4.71l.33,.88c2.91-.66,5.83-1.33,8.74-1.99l.14,.51c-2.6,1.37-5.2,2.73-7.8,4.1l.63,1.28c11.77-2.18,22.2-7.8,33.18-12.81-7.98-8.53-5.72-17.61-3.4-26.89-8.6-1.43-16.64,.87-24.73,2.91,4.54,2.19,8.92-.15,13.37-.66l.17,.84c-7.31,1.88-14.62,3.75-21.94,5.63l.26,1.22c5.86-.42,11.73-.85,17.59-1.27-6.05,2.06-12.85,1.7-17.73,6.68Zm-189.72-47.53l-1.29,.61c.45,7.9,.85,15.8,1.39,23.69,.17,2.53,1.99,3.23,4.3,3.16,9.26-.28,18.52-.54,27.78-.77,2.52-.06,4.01-1.2,4.1-3.8,.19-5.12,.63-10.26,.43-15.37-.26-6.42-.95-12.83-1.76-19.2-.14-1.1-1.62-2.46-2.79-2.89-1.77-.67-2.98,.61-3.64,2.3-3.31,8.44-5.43,17.09-4.68,26.24,.15,1.76,.58,3.5,.88,5.24l-.62,.62c-2.07-1.27-4.35-2.29-6.17-3.85-3.73-3.22-7.16-6.79-10.81-10.1-2.28-2.07-4.75-3.93-7.13-5.88Zm38.12-50.67c-5.29,10.7-10.58,21.39-15.87,32.09l-.74-.38,7.99-20.11-.46-.14c-6.23,7.49-12.46,14.99-18.7,22.48l-1.01-.8c8.95-12.45,17.91-24.9,26.86-37.35l-.89-.72c-1.38,1.53-2.82,3-4.13,4.58-6.86,8.29-13.61,16.69-20.57,24.9-4.68,5.53-9.69,10.79-14.45,16.27-2.05,2.36-1.75,3.44,.93,4.5,1.78,.7,3.61,1.28,5.44,1.85,5.92,1.85,11.05,4.48,13.42,10.89,.91,2.46,2.89,4.52,4.38,6.76l.83-.34c.11-23.01,9.94-43.37,16.95-64.48Zm219.73,393.16c2.79,0,5.59,.11,8.37-.07,.75-.05,1.43-.97,2.15-1.49-.73-.59-1.4-1.59-2.2-1.7-3.16-.45-6.35-.62-9.53-.89,3.31-.68,6.62-.62,9.92-.73,.63-.02,1.25-.7,1.87-1.08-.43-.45-.79-1.08-1.31-1.31-.98-.43-2.04-.73-3.1-.9-1.32-.21-2.67-.25-4.01-.36,2.29-1.88,5.64,.17,7.6-2.16l-.12-1.07c-3.26-.35-6.51-.7-9.77-1.05,.01-.3,.03-.61,.04-.91,2.16,0,4.35,.19,6.48-.07,1.27-.16,3.4-.94,3.48-1.63,.28-2.37-1.92-1.7-3.27-1.79-1.99-.12-3.99-.03-5.98-.03l-.04-.76c2.46-.22,4.95-.33,7.38-.73,.74-.12,1.35-1.07,2.02-1.63-.65-.57-1.21-1.35-1.97-1.67-.9-.38-1.96-.36-2.95-.52,.65-.76,1.27-.76,1.79-.99,1.02-.44,1.98-1.01,2.96-1.53-1.08-.64-2.11-1.71-3.26-1.85-3.57-.44-7.18-.53-10.78-.75v-.56c4.41-.32,8.83-.65,13.29-.98,.01-2.89-1.94-3.3-3.66-3.56-3.68-.57-7.39-.91-11.1-1.29-2.68-.28-4.16,1-4.64,3.63-2.15,11.88-1.44,23.67,1.13,35.4,.46,2.1,1.85,3,3.94,2.98,5.14-.03,10.28-.04,15.42-.1,.44,0,.88-.3,1.73-.6-2.31-3.54-5.61-1.7-8.23-2.01-2.88-.34-5.83-.08-8.76-.08v-1.46h15.91l.1-1.24c-3.31-2-7.38-.83-10.9-2.45Zm-66.66-166.01c.1-.37,.2-.75,.29-1.12-1.7-.63-3.41-1.26-5.34-1.97,1.67-.43,3.15-.81,4.85-1.24-1.41-3.72-5.17-1.5-6.7-3.12,1.7-.64,3.5-1.31,5.3-1.99l-2.94-2.47c.54-.63,2-1.56,2.03-2.53,.11-3.4-.34-6.82-.44-10.24-.07-2.34-1.28-3.1-3.45-3.19-2.68-.11-5.35-.45-8.02-.7l.02-.81c3.26,0,6.52,.07,9.78-.06,.68-.03,1.33-.83,2-1.28-.56-.47-1.04-1.12-1.68-1.38-.82-.33-1.77-.41-2.66-.47-2.28-.15-4.57-.22-6.85-.32l.02-.81c3.71-.22,7.42-.44,11.12-.66l.02-1.19c-4.93-.21-9.86-.52-14.78-.52-.72,0-1.68,1.35-2.1,2.28-.52,1.16-.8,2.52-.83,3.81-.24,9.05-.51,18.1-.52,27.15,0,3.06,.73,6.11,1.04,8.55,6.23,0,11.95,.06,17.66-.03,2.4-.04,3.71-1.18,3.05-3.79-1.49-.17-2.74-.31-4-.45l.05-.55c1.03-.29,2.06-.59,3.08-.88ZM430.9,66.08l.43,1.01c-1.14,2.48-3.67,3.03-5.91,4-6.54,2.84-13.09,5.69-19.6,8.61-1.07,.48-1.95,1.41-2.91,2.13l.43,.81c.89-.25,1.8-.45,2.66-.77,5.75-2.16,11.44-4.49,17.25-6.48,7.03-2.4,14.05-4.95,21.27-6.61,5.93-1.37,10.32,1.56,12.84,7.12,.21,.46,.37,.94,.57,1.4,.19,.43,.4,.84,.74,1.54-1.09-9.49-6.32-14.31-15.57-15,6.11-1.29,11.2,.26,15.5,5.06-1.32-10.16-5.26-15-13.47-16.92-4.52-1.06-8.81-.24-12.9,1.76-12.03,5.9-22.3,14.4-32.88,22.42-.22,.17-.19,.66-.27,1.01l.51,.6c8.29-5.14,16.58-10.28,24.87-15.43l.36,.62-13.69,9.93,.4,.63c6.45-2.48,12.91-4.96,19.36-7.44Zm106.95,324.64c-.38-.04-.76-.07-1.14-.11,.38-6.45,.77-12.91,1.15-19.36-.39-.04-.77-.09-1.16-.13l-3.96,21.19-.96-.13c.8-6.98,1.6-13.97,2.4-20.95-1.77,3.39-3.28,6.89-4.14,10.53-1.85,7.89-1.02,15.6,2.41,22.98,1,2.15,2.11,2.7,4,.69,1.92-2.05,4.2-3.75,6.21-5.73,3.57-3.52,7.13-7.07,10.55-10.74,1.34-1.44,1.64-3.1,.84-5.27-1.76-4.78-3.43-9.66-4.4-14.64-1.12-5.78-1.43-11.72-2.22-18.61-2.67,5.47-5.58,10.13-7.22,15.21-1.26,3.91-.93,8.34-1.3,12.54-.36,4.17-.71,8.35-1.07,12.53ZM362.86,87.06c-4.29-2.98-8.13-5.49-11.78-8.25-2.33-1.75-4.34-3.91-6.57-5.79-6.72-5.66-13.42-11.44-22.4-13.19-6.63-1.29-13.01-1.15-17.87,5.08,1.44-.28,2.65-.51,4.48-.86-2.77,2.42-5.01,4.38-7.25,6.33l.49,.7c2.93-.16,5.86-.32,8.78-.48l.03,.46-8.28,2.96,.26,.68,2.74,.32c-8.67,4.25-10.48,6.93-9.49,14.25,2.35-8.93,8.87-11.8,16.67-13.19,11.15-1.98,21.12,1.08,30.6,6.65,.66,.39,1.41,.63,2.13,.95l.48-.89c-6.94-5.12-13.88-10.23-21.31-15.71l6.63,2.25,.36-.6-3.17-2.73c1.5,.16,2.81,.65,3.85,1.49,5.56,4.48,11.13,8.97,16.54,13.62,4,3.45,8.42,5.57,14.1,5.93Zm124.43,120.51c-8.46-.77-11.3,3.47-12.45,10.34-.6,3.59-.58,7.47,.05,11.06,1.81,10.31,5.41,12.67,15.71,11.1,3.61-.55,3.96-1.4,3.72-5.06-.44-6.71-1.02-13.47-.59-20.15,.45-7.2,.81-7.3-6.44-7.29Zm-118-32.84h.03c0-3.52-.01-7.05,0-10.57,.05-10.11-.21-10.36-10.39-9.78-.1,0-.2,0-.3,0-1.66-.05-2.31,.73-2.28,2.41,.21,10.77,.37,21.53,.52,32.3,.1,7.03,.07,7.03,7.01,6.81,4.2-.13,5.35-1.23,5.39-5.46,.06-5.24,.01-10.47,.01-15.71Zm83.33,32.41v-.17c-1.71,0-3.43,.13-5.13-.03-2.83-.26-3.71,.93-3.55,3.68,.5,8.83,.87,17.67,1.21,26.51,.07,1.88,1.03,2.42,2.69,2.41,3.02-.03,6.04-.1,9.05,.02,2.76,.11,3.75-1.16,3.09-3.69-2.3-8.75-1.74-17.33,1.38-25.77,.78-2.11-.32-2.84-2.1-2.93-2.21-.11-4.42-.03-6.64-.03Zm-106.19-63.37c1.05,.42,1.32,.62,1.6,.63,5.94,.22,11.88,.39,17.81,.63,2.02,.08,2.31-1.11,2.26-2.71-.19-6.24-.44-12.48-.52-18.72-.09-7.22-.03-7.22-7.15-6.81-4.38,.26-5.64,1.59-5.83,6.36h10.88c-.54,.67-1.14,.94-1.76,1.03-2.79,.4-5.6,.66-8.37,1.16-.89,.16-2.14,.71-2.43,1.41-2.25,5.57-4.31,11.22-6.5,17.03Zm-10.13-62.15c-3.05-.84-6-1.84-9.03-2.46-7.67-1.58-15.27-1.49-22.35,2.3-3.79,2.03-6.54,5.2-6.63,9.77-.09,4.61,3,7.3,6.62,9.36,3.39,1.93,5.27,1.4,7.16-1.93,2.9-5.1,6.6-9.54,11.75-12.28,3.82-2.03,8.13-3.13,12.49-4.74Zm173.63,403.13c0,8.68,0,16.58,0,24.49,0,1.1-.05,2.25,.2,3.31,.67,2.83,3.03,2.16,4.94,2.11,2.2-.06,1.71-1.77,1.65-3.14-.34-7.14-.73-14.27-1-21.41-.14-3.62-.07-7.25-.08-10.88,0-2.16-.85-3.16-3.17-2.74-1.8,.32-3.66,.35-5.49,.51l-.17-.95c2.56-.67,5.13-1.34,7.69-2.01-3.62-.64-6.78,.42-9.61,2.35-.59,.4-.97,1.57-.94,2.37,.53,13.97,1.13,27.94,1.8,41.9,.04,.88,.9,1.71,1.37,2.57,.43-5.83,.41-11.23,.43-16.63,.03-5.93,0-11.86,.25-17.78,.05-1.26,1.25-2.48,2.1-4.06Zm-35.15-125.74c-.68-2.82-1.59-5.61-2-8.48-1.38-9.63-1.26-19.3,.36-28.86,1-5.93,2.74-11.74,4.4-17.53,.5-1.73,1.29-3.85,4.12-3.75-.14,.88-.12,1.6-.37,2.2-5.69,13.81-5.83,28.31-5.13,42.84,.19,3.95,1.5,7.87,2.54,11.74,.21,.79,1.51,1.28,2.31,1.91,.31-.9,.95-1.83,.89-2.7-.3-4.21-1.12-8.41-1.16-12.61-.14-14.47-1.25-29.06,4.49-42.94,.81-1.96-.25-3.06-2.42-2.98-3.55,.14-6.56,1.11-7.88,4.87-.77,2.18-1.8,4.29-2.38,6.52-3.47,13.47-3.31,27.13-1.66,40.79,.39,3.25,.95,6.71,3.89,8.98Zm-127.33-6.24c.03,2.57,1.7,2.89,3.48,2.95,11.57,.37,23.14,.72,34.72,1.04,17.31,.48,34.63,.88,51.94,1.4,8.05,.24,16.09,.7,24.14,1,2.65,.1,5.3,.02,7.95,.02,.11-.38,.21-.75,.32-1.13-1.41-.71-2.75-1.69-4.24-2.08-1.83-.48-3.78-.59-5.69-.64-16.91-.44-33.83-.85-50.74-1.24-12.18-.28-24.37-.51-36.55-.78-6.95-.16-13.89-.36-20.84-.53-1.46-.04-2.93,0-4.49,0Zm-2.69-51.94c-6.13-1.8-9.69-.12-10.13,4.85-1.29,14.84-1.63,29.71-.65,44.59,.31,4.76,1.01,5.33,5.67,5.34,.4,0,.81-.03,1.21,0,2.38,.2,3.18-.69,2.83-3.19-.53-3.77-.9-7.61-.88-11.42,.08-13.43-1.35-26.93,1.95-40.18Zm-92.77-11.49c-10.92,3.53-21.86,7.02-32.74,10.67-1.06,.35-1.76,1.75-2.63,2.66,1.16,.7,2.28,1.48,3.5,2.05,.49,.23,1.19,0,1.79-.03,7.24-.35,14.47-.91,21.71-1.02,12.39-.18,24.79-.07,37.19-.09,.7,0,1.39-.1,2.37-.18-3.76-2.8-7.5-4.03-11.86-3.99-7.15,.07-14.3-.24-21.44-.48-1.93-.06-3.85-.42-5.78-.64v-.81c5.66-.72,11.33-1.44,16.99-2.16-6.19-.69-12.29-1.07-18.18,1.44-3.23,1.38-6.66,2.3-10.02,3.36-.83,.26-1.75,.28-2.62,.41l-.34-1.12c6.69-4.8,14.82-6.5,22.05-10.1Zm250.51-89.56c-6.58,.06-13.99-2.45-19.44,5.21,5.97,1.08,11.33,.34,16.69-2.42-6.29,14.89-4.38,29.44,.46,44.06-5.85-4.24-12.09-3.1-18.4-2.55,1.41,1.62,3.01,3.31,4.7,3.42,8.91,.54,17.88,1.55,26.51-2.13,9.26-3.95,18.61-7.69,27.92-11.53,.83-.34,1.71-.7,2.39-1.26,.42-.35,.48-1.12,.71-1.7-.62-.05-1.34-.32-1.84-.09-.99,.45-1.79,1.37-2.79,1.76-10.52,4.07-21.02,8.17-31.61,12.04-3.81,1.39-5.08,.62-6.4-3.19-2.9-8.41-3.96-17.13-2.84-25.9,.66-5.19,2.52-10.22,3.94-15.71Zm-81.23-38.07l-.76,.25c0,9.84-.02,19.67,.02,29.51,0,1.79,1.02,2.73,2.9,2.7,3.42-.04,6.84-.09,10.26,0,2.63,.07,3.88-1.04,4.03-3.69,.27-4.6,.68-9.2,1.04-13.89-1.8,3.09-3.54,6.08-5.28,9.07l-1.08-.29c-1.62-8.94-5.75-16.62-11.13-23.66Zm-38.47,321.24c-1.86-2.84-4.22-4.35-7.15-5.05-14.4-3.46-28.82-6.82-43.19-10.4-18.77-4.67-37.5-9.51-56.25-14.24-1.18-.3-2.44-.3-3.66-.44l-.21,1.39c36.41,10.68,73.21,19.88,110.46,28.75Zm215.14-85.72l-.13-.89c-13.73,2.03-27.45,4.06-41.18,6.09-.08-.46-.17-.92-.25-1.38,9.41-3.47,19.71-3.16,29.34-6.5-7.81-1.19-15.61-2.37-23.42-3.56,14.6-2.22,28.44,4.25,42.89,3.58-7.7-1.59-15.42-2.93-23.16-4.19-5.37-.88-10.75-1.67-16.12-2.49-2.68-.41-4.29,.73-5.43,3.21-1.21,2.64-2.73,5.16-4.36,7.57-1.31,1.94-2.96,3.65-4.47,5.47l.35,.78c15.31-2.56,30.61-5.13,45.92-7.69Zm-317.89-118.79l.58-.58c-1-.77-1.88-1.81-3.01-2.28-4.49-1.85-9.05-3.52-13.58-5.26,5.18,.86,10.18,2.31,15.2,3.67,1.08,.29,2.25,.22,3.38,.32l.03-1.14-3.2-.21c-4.82-3.78-11.02-4.6-16.4-7.48,5.72,1.43,11.44,2.87,17.16,4.3,.13-.45,.25-.9,.38-1.36-5.96-1.75-11.91-3.51-17.87-5.26,2.35-.15,4.58,.21,6.81,.56,2.21,.35,4.42,.69,6.64,1.04l.14-.88c-4.16-1.36-8.32-2.72-12.48-4.09l.25-.83c1.4,.15,2.8,.3,3.59,.38-3.4-1.43-7.29-3.06-10.85-4.56-.61,4.44-1.2,9.22-1.95,13.97-.31,1.92,.75,2.54,2.21,2.96,7.66,2.24,15.32,4.48,22.98,6.71Zm326.47,212.49c-.32-.12-.64-.23-.96-.35-3.6,5.54-7.17,11.1-10.81,16.62-.82,1.24-1.67,2.97-2.85,3.34-3.19,.99-3.74,3.6-4.69,6.09-.8,2.09-.16,3.03,2.12,2.97,3.42-.09,6.57-1.24,8.46-3.97,4.97-7.17,9.71-14.5,14.27-21.94,1.73-2.83,1.46-6.13,.16-9.65-2.78,5.14-5.39,9.96-8,14.79l-.55-.28c.95-2.54,1.9-5.09,2.85-7.63Zm-265.39-10.13c-.39,.19-.77,.38-1.16,.58,0,6.62-.22,13.26,.07,19.87,.22,5.01,.99,10.01,1.68,15,.38,2.76,2.36,4.09,5.15,3.96,2.37-.11,3.55-1.48,3.56-3.67,.08-8.97,.1-17.94,.01-26.9-.02-2-1.19-3.31-3.43-3.37-.74-.02-1.73-.16-2.16-.64-1.36-1.5-2.5-3.2-3.73-4.82ZM499.65,184.07c3.88-6.46,3.9-22.81-.86-26.05v2.59c-2.74-4.84-7.9-3.39-12.35-4.99,1.44-.11,2.42-.22,3.39-.26,.98-.04,1.95,0,3.33,0-4.25-1.76-9.17-1.34-11.54,.87,1.28,.44,2.51,.84,3.73,1.29,4.17,1.53,7.26,4.46,8.11,8.7,1.93,9.63,1.49,18.89-6.69,26.03-.3,.27-.5,.66-1,1.33,3.43-.18,5.84,.13,7.95-3.49,3.22-5.51,5.8-10.98,6.49-17.32,.12-1.1,.31-2.19,.42-3.29,.09-.96,.12-1.92,.18-2.88l1.25,.18c-.86,6.18-1.72,12.37-2.4,17.3Zm-111.93-82.06c-2.23,2.49-1.04,5.02-.26,7.42,6.46,19.97,19.83,33.82,38.42,42.87,3.96,1.93,8.24,3.27,12.48,4.5,1.79,.52,3.86,.09,5.8,.09l.05-1.17c-.92-.23-1.85-.44-2.77-.68-8.86-2.25-17.48-5.2-24.37-11.44-5.52-4.99-10.83-10.28-15.69-15.91-3.51-4.07-6.46-8.73-9.02-13.47-2.03-3.74-3.09-8.01-4.64-12.22Zm131.5,192.98c-2.71-.84-4.73,.5-6.98,1.71-2.11,1.13-4.56,2.05-6.92,2.21-4.51,.3-9.06,.02-13.59-.06-2.02-.03-3.56,.24-3.57,2.86-.02,3.81,.78,5.31,3.58,5.42,3.52,.13,7.05,.16,10.58,.1,8.2-.12,13.79-4.17,16.9-12.24Zm-165.74,121.19l-.22,1.07c.36,.13,.72,.31,1.1,.39,13.76,3.08,27.49,6.31,41.3,9.12,3.76,.77,7.83,.73,11.66,.28,6.79-.8,13.5-2.24,20.26-3.34,6.15-1,12.31-1.89,18.47-2.84l-.11-.86c-6.89,.7-13.8,1.31-20.68,2.14-6.18,.74-12.42,2.8-18.49,2.36-9.79-.71-19.47-3.02-29.2-4.6-8.02-1.29-16.06-2.49-24.09-3.73Zm-4.49,28.04c-.98-.63-1.89-1.62-2.96-1.84-8.27-1.73-16.59-3.2-24.86-4.95-18.61-3.95-37.19-8.03-55.78-12.04-1.09-.24-2.21-.35-3.85-.61,3.23,3.48,80.76,21.04,87.45,19.45ZM454.94,84.64c-.69-.17-1.16-.4-1.62-.37-5.84,.3-11.18-1.54-16.08-4.38-7.16-4.16-13.81-2.09-20.56,.92,6.99-.24,13.32,1.8,19.23,5.31,2.16,1.28,4.25,2.69,6.48,3.84,5.69,2.93,10.03,1.16,12.55-5.32Zm-41.88,62.31l-.85,1.1c9.51,7.82,17.04,17.17,22.27,28.44,1.64-3.82,3.05-7.47,4.01-11.24,.26-1.03-.5-2.97-1.4-3.54-7.93-5.04-16-9.87-24.03-14.76ZM213.66,478.65c-1.79,.74-3.24,1.34-4.69,1.94l.13,.78c1.34,.36,2.69,.72,4.79,1.28-1.94,.64-3.13,1.02-4.93,1.62,1.62,.77,2.57,1.22,3.6,1.7-1.14,.6-2.16,1.14-3.6,1.91,1.35,.85,2.14,1.35,2.95,1.87-.86,.58-1.63,1.1-2.74,1.84,1.21,.89,2.1,1.55,3.03,2.24-.87,.55-1.55,1-2.68,1.72,1.49,.75,2.48,1.26,3.79,1.92-1.23,.66-2.15,1.15-3.69,1.97,1.67,.79,2.79,1.31,3.94,1.86l-3.08,1.3c1.09,.74,1.76,1.2,2.37,1.62-.97,.51-1.89,.99-3.22,1.69,5.76,2.14,7.92,.73,7.9-4.43-.03-6.23-.12-12.46-.05-18.68,.06-4.98-.13-5.27-5.25-5.21l1.43,1.09ZM465.44,151.94c-.37-9.56-1.12-18.97-.97-28.37,.11-6.78,.21-13.8,4.35-19.87-3.84-.04-5.36,1.12-6.26,5.22-2.78,12.62-2.72,25.34-.9,38.08,.35,2.45,1.77,4.17,3.78,4.94Zm-15.79,266.45c-23.61-.37-47.88-.74-72.92-1.13,.9,.61,1.04,.79,1.21,.82,8.24,1.3,16.48,2.62,24.74,3.85,.84,.13,1.76-.3,2.65-.42,4.73-.6,9.46-1.19,14.18-1.78l.09,.77-13.97,1.69c.03,.34,.06,.68,.09,1.02,1.84-.08,3.72,.03,5.52-.28,4.56-.78,9.05-2.09,13.63-2.57,8.44-.9,16.92-1.36,24.77-1.95Zm22.11-170.83c-9.91-17.07-10.04-33.35,3.29-48.84-3.46-.06-5.23,2.36-6.93,4.65-8.14,10.88-8.91,29.85-1.81,41.52,1.21,1.98,2.8,3,5.45,2.67Zm11.67-48.57c-7.36,1.03-15.18,12.28-15.7,24.23-.42,9.48,4.24,21.99,11.47,23.66-.91-1.51-1.73-2.74-2.41-4.04-5.92-11.22-7.64-22.8-1.54-34.39,1.95-3.71,5.59-6.53,8.19-9.46Zm-49.24-123.49c4.87,3.42,9.72,5.99,15.55,6.13,2.21,.05,4.6,.04,5.39-2.73,.71-2.48-1.09-5.92-3.51-7.02-4.53-2.05-13.19-.45-17.43,3.62Zm-69.65,21.79l-.66-1.18c-3.93,2.33-7.91,4.57-11.76,7-5.71,3.61-8.95,10.25-15.64,12.75-2.4,.9-4.65,2.22-6.86,3.54-.8,.48-1.28,1.51-1.91,2.28,.96,.66,1.86,1.67,2.91,1.87,.81,.15,1.91-.57,2.7-1.15,2.91-2.14,5.8-4.31,8.6-6.59,7.56-6.14,15.08-12.35,22.62-18.53Zm38.61-26.91c1.2-.9,2.36-1.86,3.61-2.68,7.23-4.72,14.24-9.84,21.79-13.98,6.87-3.77,14.43-5.03,22.07-1.61,1.3,.58,2.57,1.22,3.85,1.83-1.23-1.61-2.73-2.76-4.38-3.62-5.48-2.83-11.25-2.71-17.06-1.34-12.83,3.03-21.36,12.25-29.89,21.39Zm-87.52,77.46l-.21-1.32c-1.86-.17-3.72-.48-5.58-.5-12.17-.1-24.34-.04-36.51-.24-5.41-.09-10.8-.67-16.21-.97-.73-.04-1.49,.31-2.24,.48,.55,.6,1.02,1.35,1.69,1.76,.56,.34,1.35,.36,2.05,.37,17.99,.43,35.97,.87,53.96,1.23,1.01,.02,2.03-.53,3.05-.82Zm-7.93-37.96c.41-3.33-1.46-3.3-3.38-3.24-11.45,.38-22.91,.78-34.36,1.11-4.12,.12-8.26-.01-12.37,.19-1.37,.07-2.7,.82-4.05,1.27l.29,.68h53.88Zm64.85,39.68c.85-16.03,3.79-32.1-1.21-48-1.85,16.05-.06,32.02,1.21,48Zm191.33,373.48c.45,2.91,2.11,3.09,3.9,3.1,6.55,.03,13.09,.13,19.64,.07,7.68-.07,13.76-4.81,16.15-12.68-.49,.7-.8,1.08-1.06,1.5-3.4,5.58-8.25,8.16-14.88,7.88-6.64-.28-13.29-.09-19.94-.08-1.16,0-2.32,.12-3.81,.2ZM356.82,80.49l.32-.6c-3.4-2.91-6.87-5.75-10.19-8.75-2.38-2.15-4.46-4.65-6.87-6.77-4.55-4.01-9.36-7.7-15.55-8.8-4.24-.75-8.43-.75-12.97,2.15,1.43,.13,2,.24,2.57,.22,8.02-.26,15.38,1.91,21.83,6.6,5.52,4.01,10.74,8.42,16.13,12.62,1.52,1.18,3.15,2.22,4.73,3.33Zm100.28,67.76l.89-.28c-1.97-14.12-1.23-28.13,1.48-42.27-1.47,1.17-2.8,2.45-3.3,3.99-.81,2.46-1.46,5.1-1.49,7.67-.08,8.44,.04,16.89,.38,25.32,.07,1.88,1.33,3.72,2.04,5.58Zm-25.49,350.12l-1.38-.37c-.45,.95-1.27,1.9-1.29,2.86-.07,2.91,.21,5.83,.27,8.75,.06,2.9,.01,5.79,.01,8.69-.53,.01-1.07,.03-1.6,.04-.54-7.89-1.07-15.77-1.61-23.66-.92,.71-1.46,1.72-1.44,2.73,.17,7.25,.48,14.49,.71,21.73,.08,2.6,1.42,3.58,3.91,3.34,2.54-.25,3.15-1.71,2.75-4.01-.24-1.38-.3-2.81-.31-4.21-.03-5.29-.01-10.59-.01-15.88Zm-52.7-343.58l-1.03,.23c-.15,.24-.44,.49-.44,.73,0,12.36,0,24.72,.06,37.07,0,.72,.59,1.43,.91,2.15l1.02-.09c.25-1.29,.72-2.58,.7-3.87-.08-6.13-.35-12.26-.45-18.39-.08-4.83,.05-9.66-.03-14.49-.02-1.12-.48-2.23-.74-3.34Zm67.05-57.91c-9.89-10.99-22.01-15.56-36.52-13.17,11.75,.71,22.13,5.19,31.87,11.51,1.36,.88,3.14,1.14,4.65,1.66Zm-68.95,53l1.38,.04c.47-16.17,.94-32.34,1.4-48.5l-1.25-.03c-1.25,16.15-2.2,32.3-1.53,48.5Zm-4.33,45.01c1.91-3.01,2.08-35.47,.39-40.27-1.26,1.6-1.68,36.06-.39,40.27Zm45.83-68.18c.33-5.32-14.64-23.03-20.18-24.42,6.65,8.31,11.85,17.14,20.18,24.42Zm162.66,334.84c-3.24,.46-6.06,.86-8.87,1.26l.07,.34,5.33,.36v1.28c-6.78,1.75-14.15-1.84-21.6,1.81,8.57,0,16.3,.21,24.01-.1,3.36-.13,6.02-2.32,8.15-4.89l-.51-.96c-2.46,1.26-4.93,2.52-7.56,3.87,.28-.84,.54-1.63,.99-2.98Zm-358.92,54.51l.61-1.61c-1.82-1.22-3.5-2.9-5.5-3.56-2.63-.87-5.51-1.06-8.3-1.29-1.03-.08-2.13,.57-3.19,.89,.46,1.07,.78,2.23,1.42,3.17,.41,.61,1.26,1.2,1.97,1.28,4.33,.46,8.67,.76,13.01,1.11ZM385.42,252.67l-.67,.29c.54,13.41,1.08,26.81,1.61,40.22,.68-.59,1.07-1.23,1.06-1.86-.18-11.65-.37-23.3-.69-34.95-.03-1.24-.85-2.47-1.31-3.7Zm-40.52,42.36l1-.07c1.73-5.73-.13-37.61-2.32-40.06,.44,13.37,.88,26.75,1.32,40.13Zm110.13-41.77c.34,13.35,.66,26.08,.98,38.87,2.47-2.6,1.91-34.78-.98-38.87Zm41.08,1.04v35.24c3.28-5.65,2.7-32.78,0-35.24Zm-244.46,23.5c1.13,2.86,22.03,11.47,26.68,11.17-8.34-5.9-17.16-8.54-26.68-11.17Zm102.63-86.8h-.55c0-1.05-.01-2.1,0-3.15,.15-10.55,.34-21.1,.38-31.66,0-.94-.95-1.89-1.46-2.83-.35,1-1.02,2.01-.99,3,.31,12.44,.72,24.88,1.13,37.31,.02,.63,.23,1.26,.37,2.03,1.81-1.5,2.24-6.57,1.12-13.37v8.65Zm-42.11,104.67l.69,.24c.3-.94,.85-1.89,.85-2.83,.03-11.99,0-23.98-.1-35.96,0-.73-.6-1.46-.92-2.19l-.53,.25v40.49Zm19.7-183.39c4.71-3.92,8.71-7.24,12.7-10.56-6.13,1.97-11.36,5.22-15.03,10.48-.98,1.41-1.13,3.39-1.66,5.12,1.89-.61,3.92-.96,5.62-1.91,1.79-1,1.79-2.32-1.64-3.13Zm77.68,37.49c-8.88-1.7-17.82-2.25-26.81-1.85l-.07,1.46c8.9,1.26,17.86,1.22,26.88,.39Zm9.55,103.29v39.88c.37-.01,.74-.02,1.11-.03,1.03-13.36,2.17-26.73-1.11-39.85Zm-115.55,178.39l-.2,1c12.54,2.48,25.07,4.95,37.61,7.43l.24-1.24c-12.61-2.07-24.82-6.23-37.64-7.19Zm113.23-272.23v34.89c2.34-4.21,1.96-31.19,0-34.89Zm-107.73,36.72h1.43c.13-9.46,.61-18.94-.7-28.37h-.73v28.37Zm145-44.42c-6.95-3.15-14.49-1.93-21.77-2.84,6.8,4.13,14.24,3.69,21.77,2.84Zm-85.92,334.16l-.15,.75c7.32,4.25,25.26,7.24,32.13,5.93-4.07-.75-9.69-1.68-15.26-2.84-5.59-1.16-11.14-2.55-16.71-3.84Zm.13-338.17c-7.48-.08-14.94-.99-23.05,.45,3.5,2.02,21.54,1.73,23.05-.45Zm-90.78,146.41l.47-1.02c-8.25-4.04-17.02-6.61-25.74-9.35l-.42,1.18c8.56,3.06,17.13,6.12,25.69,9.18Zm254.86-39.81c-6.68-2.54-13.41-2.08-20.15-.91,0,.3,0,.61-.01,.91h20.16Zm59.53,229.69c2.99-5,8.49-8.17,10.19-14.31-4.27,1.6-10.35,10.01-10.19,14.31ZM357.91,114.97c2.75,0,5.43,.08,8.1-.06,.54-.03,1.48-.87,1.47-1.31-.03-.86-.37-2.14-1-2.49-2.79-1.54-7.38,.52-8.57,3.86Zm8.49,347.15c-1.24,4.64-.97,5.13,3.75,5.68,.88,.1,1.88-.77,2.82-1.2-.55-1.14-.82-2.77-1.73-3.3-1.39-.8-3.22-.83-4.84-1.18Zm246.67-28.64c2.54,0,4.83,.18,7.05-.1,.73-.1,1.3-1.42,1.95-2.18-.61-.49-1.19-1.37-1.83-1.42-2.34-.17-4.7-.07-7.17-.07v3.77Zm-171.93-240.89h.4v-26.64h-.4v26.64Zm160.14,230.65l.59,.54c0,.4,0,.8,0,1.2-.03,1.6,.45,3.06,2.3,2.49,.75-.23,1.19-1.82,1.52-2.87,.21-.67,.17-1.61-.16-2.2-.4-.7-1.64-1.74-1.8-1.63-.93,.66-1.65,1.62-2.44,2.48Zm20.67,12.67c-3.15-.23-5.66-.45-8.17-.47-.12,0-.7,2.04-.31,2.55,.98,1.29,6.52,.28,8.48-2.08ZM367.19,108.52l.94-.67c-.79-1.02-1.44-2.7-2.41-2.92-2.53-.56-4.26,.97-5.6,3.58h7.07Zm252.43,332.47c-5.44-1.53-7.28-.54-6.39,3.44,3.78,.06,5.28-.75,6.39-3.44ZM378.88,92.81c-.23-3.68-.44-7.01-.65-10.33l-.99-.02c-1.94,2.99-.37,6.32-.2,9.49,.02,.3,1.12,.54,1.84,.86Zm233.6,350.76c-1.42-1.44-2.07-2.68-3-2.93-1.72-.47-2.18,.88-2.18,2.38,0,1.38,0,2.89,1.96,2.53,.9-.16,1.68-1,3.22-1.98Zm-237.8,20.54c-.06,1.98-1.27,4.21,1.63,4.97,.52,.14,1.81-.81,1.95-1.42,.5-2.38-.76-3.51-3.58-3.55Zm245.69-44.18c1.13-.97,1.88-1.62,2.63-2.26-.82-.66-1.65-1.84-2.47-1.84-.94,0-1.88,1.06-2.82,1.65,.76,.7,1.51,1.39,2.66,2.45Zm-252.43,23.9c-.89,.75-1.4,1.18-1.9,1.6,1.65,.8,3.27,1.68,4.98,2.34,.42,.16,1.12-.39,1.69-.61-1.51-1.05-3.02-2.1-4.78-3.33Zm142.92,72.04c.35,2.79,2.25,3.93,4.59,2.94,.53-.22,1.17-.94,1.16-1.43,0-.42-.81-1.1-1.34-1.19-1.35-.24-2.75-.22-4.41-.32Zm109.41-86.78c1.13-1.21,1.76-1.89,2.39-2.57-.76-.56-1.49-1.51-2.29-1.57-.81-.06-1.68,.75-2.53,1.19,.66,.8,1.31,1.6,2.42,2.95Zm-12.43,5.99c-.34,.29-.68,.58-1.01,.86,.79,1.01,1.58,2.03,2.38,3.04,.67-.64,1.89-1.26,1.92-1.94,.13-2.55-1.81-1.95-3.28-1.97Zm-.1-5.79c-.47,1.96-.89,3.8,1.72,3.94,.56,.03,1.63-1.19,1.71-1.93,.31-2.61-1.55-2.22-3.43-2.01ZM275.11,178.75c.32-3.03-2.46-5.31-6.86-5.47,2.61,2.08,4.62,3.68,6.86,5.47Zm91.27,276.68l-.37,1.29c2.16,.5,4.32,.99,6.48,1.49l.29-1.1c-1.77-1.8-4.19-1.4-6.4-1.68Zm69.37,34.2c.08,.33,.17,.66,.25,.98,4.62-1.26,9.23-2.51,13.85-3.77l-.12-.46c-4.66,1.08-9.32,2.16-13.98,3.24Zm-77.3-47.2c.25,2.31,2.86,4.24,4.55,3.6,.31-.12,.76-.61,.7-.8-.13-.48-.43-1.11-.83-1.27-1.4-.59-2.87-1.01-4.42-1.53Zm14.01,18.49l.29-1.14-6.4-1.43-.27,1.12c1.65,2.24,4.17,1.28,6.38,1.45Zm245.85-40.77c-.38,3.26,1.24,3.29,2.71,3.07,.6-.09,1.08-1,1.61-1.54-1.33-.47-2.65-.94-4.32-1.53ZM272.37,166.81c-2.62-2.41-4.76-4.38-7.46-6.88,2.39,4.77,4.27,6.59,7.46,6.88Zm94.92,281.98l-.46,1.79,5.57,1.19,.36-1.56c-1.82-.47-3.65-.94-5.47-1.42Zm242.01-25.39c-.92,1.2-1.91,1.95-1.8,2.48,.14,.67,1.16,1.61,1.8,1.61,.64,0,1.67-.94,1.81-1.61,.11-.53-.88-1.28-1.81-2.48Zm-255.79,31.94l2.29-1.58c-.93-.55-1.81-1.33-2.82-1.57-.51-.12-1.25,.73-1.88,1.13,.75,.63,1.5,1.25,2.41,2.02Zm10.61,1.32c-2.21-2.98-4.16-3.27-6.25-1.04,2.11,.35,3.83,.64,6.25,1.04Zm.31-8.13c-2.19-.77-3.86-1.36-5.84-2.06,.62,3.21,2.63,3.97,5.84,2.06Zm234.77,46.04c2.67-.53,4.53-3.56,3.94-6.68-1.45,2.45-2.61,4.42-3.94,6.68Zm-235.31-42.52c-1.68-.62-3.36-1.25-5.37-1.99,.49,2.98,1.59,3.44,5.37,1.99Zm129.85-156.41l-.05,.88c3.9-.2,7.8-.4,11.7-.59l-.04-.29h-11.61Zm1.97-147.3l-.14-1.12c-3.4,.6-6.79,1.21-10.19,1.81l.09,.6,10.24-1.29Zm121.33,264.45c-1.31-.84-1.92-1.52-2.55-1.55-.53-.02-1.09,.74-1.64,1.15,.48,.63,.86,1.62,1.47,1.79,.54,.14,1.33-.63,2.72-1.39Zm-258.28,44.57l-.33,1.47c1.64,.27,3.28,.54,4.93,.8l.24-1.32c-1.61-.32-3.23-.64-4.84-.95Zm7.72-5.32l-.3,.75c2.15,.32,3.7,3.55,6.82,.94-2.39-.62-4.45-1.16-6.52-1.69Zm14.97-360.23h.61v-8.83h-.61v8.83Zm222.62,385.46l-.92-.65-3.52,4.98c.36,.25,.71,.51,1.07,.76,1.12-1.7,2.25-3.39,3.37-5.09Zm-253.05-33.53c.57,3.04,1.73,3.33,4.33,1.21-1.51-.42-2.71-.76-4.33-1.21Zm263.82-14.73c.67-1.39,1.3-2.09,1.19-2.63-.12-.55-.96-.95-1.48-1.42-.38,.5-1.07,1.01-1.07,1.51,0,.6,.6,1.19,1.37,2.53Zm-101.82,95.43l1.02-.49c.15-.91,.29-1.82,.56-3.5-1.43,.64-2.31,1.03-3.2,1.43,.54,.85,1.08,1.71,1.61,2.56Zm98.97-102.53c-1.32-.71-1.86-1.24-2.38-1.22-.68,.03-1.35,.5-2.02,.79,.52,.44,1,1.14,1.59,1.25,.6,.11,1.32-.35,2.81-.82Zm-95.78-225.71l-.11,.24h13.98v-.24h-13.87Zm98.64,219.09c-.81,1.01-1.67,1.68-1.55,2.04,.2,.64,.99,1.1,1.54,1.63,.46-.51,1.2-.99,1.29-1.55,.07-.49-.61-1.09-1.27-2.12ZM366.51,90.38l1.26-.23-1.04-5.5-.83,.12,.61,5.61Zm-10.21,367.2c-1.42-.73-2.83-1.47-4.52-2.34,.37,2.83,.42,2.86,4.52,2.34Zm13.13-368.5l.7,.03c.39-1.88,.77-3.76,1.16-5.64l-1.29-.19c-.19,1.93-.38,3.86-.57,5.8Zm-21.04,352.39l.18-1.1-5.26-1.06-.2,.98c1.76,.39,3.52,.78,5.28,1.18Zm183.98,75.83l.44-1.36c-1.11-.35-2.21-.7-3.32-1.05-.15,.46-.3,.92-.45,1.39l3.33,1.02ZM373.88,82.4l-.32-.02v6.55l.32,.02v-6.55Z"/><path d="M555.75,420.38c-45.77,7.22-91.55,14.45-137.32,21.67l-.12-.74c45.5-8.97,91.52-14.66,137.44-20.93Z"/><path d="M393.05,485.16c-1.98-2.33-4.69-4.35-5.8-7.03-4.79-11.57-5.23-23.67-3.15-35.9,.34-2.02,1.41-3.91,2.14-5.86l1.22,.25c.06,1.21,.32,2.46,.14,3.63-2.3,15.17-1.38,29.93,5.21,44.04,.13,.27,.15,.58,.22,.88h.01Z"/><path d="M527.49,452.85c-33.22,6.8-66.23,13.55-99.85,20.43,4.25-3.03,93.79-21.16,99.85-20.43Z"/><path d="M505.01,450.23c-27.05,5.2-54.09,10.4-81.14,15.6l-.19-.98c26.82-6.19,53.99-10.54,81.08-15.34l.25,.72Z"/><path d="M496.56,444.27c-25.22,4.39-50.43,8.78-75.65,13.16l-.23-1.33,75.69-12.9,.19,1.06Z"/><path d="M414.74,448.03c24.14-5.69,48.65-9.31,73.23-12.52-24.34,4.47-48.69,8.93-73.03,13.4l-.2-.87Z"/><path d="M511.94,338.31c5.96-7.21,13.35-12.73,21.04-17.91l.54,.63c-6.98,6-13.96,12-20.94,18l-.63-.71Z"/><path d="M510.98,332.48c5.5-6.72,12.23-11.97,19.59-16.48l.51,.61-19.52,16.43-.58-.55Z"/><path d="M510.77,327.47c4.14-7.01,10.96-10.8,17.8-14.56-5.93,4.85-11.87,9.71-17.8,14.56Z"/><path d="M508.18,323.13c3.86-6.16,9.94-9.75,16.23-13.11-5.21,4.56-10.43,9.12-15.64,13.68l-.58-.57Z"/><path d="M593.91,437.88v-21.52h.71v21.44l-.71,.08Z"/><path d="M515.63,342.71c2.06-4.45,8.91-11.04,15.5-14.52-4.95,4.64-9.91,9.28-15.5,14.52Z"/><path d="M527.27,333.86c-3.29,3.77-6.58,7.54-9.87,11.32l-.7-.73c3.6-3.47,7.19-6.94,10.79-10.41l-.21-.19Z"/><path d="M287.36,381.58h54.06v.58h-54.05v-.58Z"/><path d="M400.16,382.17h-35.37v-.59h35.37v.59Z"/><path d="M353.38,391.8h23.69v.33h-23.73l.04-.33Z"/><path d="M262.32,226.88c27.16-.34,54.29,1.14,81.43,1.65v.89l-81.45-1.26,.02-1.28Z"/><path d="M322.07,220.34c-21.87-.44-43.75-.89-65.62-1.33l.04-1.61,65.52,1.88,.06,1.06Z"/><path d="M429,208.86v28.58h-.39v-28.61l.39,.03Z"/><path d="M460.98,311.77c.45,11.37,.9,22.74,1.34,34.11l-1.02,.04c-.48-11.37-.97-22.74-1.45-34.12,.38-.01,.75-.02,1.13-.04Z"/><path d="M451.99,345.96c-.43-10.77-.85-21.54-1.28-32.31,.37-.02,.73-.03,1.1-.05l1.45,32.3c-.42,.02-.85,.04-1.27,.05Z"/><path d="M441.71,343.47c-.4-10.37-.8-20.73-1.2-31.1,.37-.01,.74-.03,1.12-.04l1.17,31.1c-.36,.01-.73,.03-1.09,.04Z"/><path d="M422.4,339.21v-25.68h.45v25.74l-.45-.06Z"/><path d="M432.23,340.4v-16.75h.5v16.74h-.5Z"/><path d="M412.54,340.45v-14.83h.32v14.83h-.32Z"/><path d="M221.22,340.25c-.15-5.55-1-11.2-.18-16.6,.45-2.98,3.36-5.86,5.72-8.22,4.18-4.18,9.86-5.15,15.42-5.04,13.79,.27,27.56,1.02,41.35,1.51,3.9,.14,7.81,.02,11.71,.02l.05,1.38c-2.84,0-5.69,.02-8.53,0-15.61-.11-31.23-.28-46.84-.29-2.02,0-4.05,.82-6.07,1.26l.07,.91c27.37,1.14,54.73,2.29,82.1,3.43v.8c-1.92,0-3.85,.04-5.77,0-15.1-.38-30.19-.82-45.29-1.16-10.47-.24-20.95-.43-31.42-.48-2.06-.01-4.14,.62-6.16,1.17-.61,.17-1.01,1.06-1.51,1.63,.61,.44,1.19,1.19,1.84,1.26,4.3,.45,8.61,.85,12.93,1.07,13.85,.7,27.71,1.31,41.55,2.58-4.79,0-9.58,.07-14.37-.02-7.55-.13-15.1-.35-22.65-.54-5.94-.15-11.88-.37-17.82-.43-3.91-.04-4.13,.61-4.05,4.46,.09,3.79-.46,7.58-.72,11.38l-1.36-.06Z"/><path d="M225.95,339.66c21.16,.32,42.33,.65,63.49,.97v.38h-63.49v-1.36Z"/><path d="M262.04,333.51h-34.18c3.15-2.07,26.09-1.75,34.18,0Z"/><path d="M542.54,518.92c-2.38-10.13-2.77-29.97,0-36.12v36.12Z"/><path d="M277.18,135.62h38.27v.66h-38.37l.1-.66Z"/><path d="M352.09,265.17v12.33h-.62v-12.28l.62-.05Z"/><path d="M482,116.28c4.65,.54,9.31,1.09,14.17,1.66-1.74-2.18-4.05-3.15-11.25-4.15-3.95-.55-7.98-.54-12.02-.78,7.19-4.81,27.91,1.25,31.38,8.97-3.6-.95-7.28-2.05-11.03-2.88-3.78-.84-7.62-1.41-11.44-2.09l.19-.72Z"/><path d="M480.26,134.82c8.11-2.19,17.57-1.51,22.93,1.74-5.61,2.76-11.44,2.64-17.16,3.12,4.27-1.18,8.54-2.36,12.81-3.54v-.51c-6.01-.26-12.01-.52-18.57-.81Z"/><path d="M474.82,121.27c8.9-.4,17.9-1.27,25.09,5.83-7.72-4.76-16.63-4.29-25.09-5.83Z"/><path d="M494.22,130.51c-6.03-.33-12.06-.66-18.09-1,6.15-1.99,12.15-1.1,18.09,1Z"/><path d="M488.62,164.57c.22,2.8,.5,5.6,.65,8.4,.09,1.75-.76,2.56-2.62,2.33-2.43-.3-4.87-.45-7.31-.67,0-.29,.01-.57,.02-.86h6.92c.05-.4,.1-.81,.14-1.21l-12.43-1.86,.05-.81h11.96c.02-.42,.05-.84,.07-1.25-3.55-.44-7.1-.87-10.66-1.31v-.2l9.34-.68,.07-1.36c-3.81-.48-7.62-.96-11.43-1.44,5.14-.53,10.36-2.59,15.21,.91h0Z"/><path d="M461.34,182.83c.23-4.42,.45-8.84,.68-13.26h.67v13.29l-1.35-.03Z"/><path d="M478.49,179.01c4.52-1.88,9.37-1.64,10.23,.47-3.3-.15-6.5-.3-10.23-.47Z"/><path d="M468.2,173.21v10.57h-.64v-10.59l.64,.03Z"/><path d="M480.7,181.53h7.53c-2.93,1.97-5.22,1.31-7.49,.79l-.04-.79Z"/><path d="M463.67,285.87v-16.55h.65v16.64l-.65-.09Z"/><path d="M469.46,267.54v13.22l-.47,.04v-13.19l.47-.07Z"/><path d="M465.12,287.79v-14.68h.32v14.58l-.32,.1Z"/><path d="M304.31,171.33c-.26,5.15-.51,10.3-.77,15.45l-.23-.03v-15.46l.99,.03Z"/><path d="M300.81,289.67v-28.11h.52v28.11h-.52Z"/><path d="M449.07,285.81v-21.34h.79c1.57,7.14,.13,14.24-.04,21.35h-.75Z"/><path d="M232.61,461.94c4.12-3.6,9.05-5.7,14.1-7.6l.44,.8c-4.65,2.62-9.3,5.24-13.95,7.86l-.59-1.06Z"/><path d="M426.08,132.65h17.61v.3h-17.85l.24-.3Z"/><path d="M326.14,277.81v-15.78l.52-.03v15.78l-.52,.02Z"/><path d="M321,276.96v-13.57h.49v13.57h-.49Z"/><path d="M504.91,269.69v-9.75l1.2,.03c-.17,3.23-.33,6.45-.5,9.68l-.7,.04Z"/><path d="M346.83,186.23v-23.94h.76v23.99l-.76-.05Z"/><path d="M546.3,358.55c-3.87,8.52-2.61,17.84-4.16,26.72-.81-9.25-.27-18.29,4.16-26.72Z"/><path d="M545.94,369.6v14.62h-.74v-14.62h.74Z"/><path d="M548.76,384.97c-.27-3.81-.55-7.63-.82-11.44l.58-.05c.29,3.81,.58,7.62,.88,11.43l-.64,.06Z"/><path d="M451.41,236.49l-1.27-27.73,1.37-.06,1.12,27.74-1.22,.06Z"/><path d="M340.66,304.1c-.42,3.36-1.25,6.72-1.2,10.07,.18,12.47,.67,24.94,.97,37.4,.02,.81-.59,1.64-.91,2.47-.68-.64-1.73-1.18-1.95-1.95-.49-1.72-.75-3.56-.76-5.36-.08-10.38-.14-20.76-.01-31.14,.04-3.09,.61-6.2,1.18-9.26,.18-.98,1.16-1.82,1.78-2.72l.91,.47Z"/><path d="M346.89,487.16v28.81l-.87,.49c-.66-.87-1.87-1.72-1.89-2.6-.2-8.52-.79-17.08,1.67-25.43,.07-.25,.36-.44,1.1-1.28Z"/></svg>