<?xml version="1.0" encoding="UTF-8"?><svg id="a" xmlns="http://www.w3.org/2000/svg" viewBox="0 0 800 600.7"><path d="M165.65,180.14c.92-4.04,2.97-6.86,7.91-5.8,.41,.09,1.4-1.14,1.65-1.91,2.55-7.77,2.52-7.78,10.63-6.51,1.13-5.74,2.34-11.5,3.39-17.3,1.18-6.52,4.53-10.08,11.15-10.12,70.89-.41,133.69,19.7,183.05,73.09,6.59,7.13,12.01,15.34,18.15,23.28,.3-.29,.97-.72,1.36-1.32,20.93-32.36,50.86-53.28,86.04-67.37,27.98-11.21,57.16-16.79,87.27-17.2,9.6-.13,19.23,.36,28.82,.89,7.05,.39,9.39,2.67,11.27,9.55,1.64,6.01,3.25,12.04,5.1,17.98,.33,1.06,1.89,2.57,2.75,2.49,4.28-.4,5.81,2.12,6.79,5.53,.44,1.54,.91,3.08,1.31,4.39,4.32,0,8.41-.62,12.21,.15,5.38,1.1,10.57,2.21,16.2,1.94,4.67-.22,7.22,3.58,8.52,8,6.53,22.23,13.07,44.47,19.7,66.67,15.86,53.11,31.76,106.21,47.72,159.29,1.64,5.45,2.84,10.7,.22,16.19-3.3,6.91-10.36,10.68-17.93,9.9-15.77-1.62-31.56-3.04-47.35-4.42-18.76-1.63-37.54-3.2-56.31-4.67-12.43-.97-24.87-2-37.33-2.51-31.3-1.29-62.61-2.54-93.93-3.28-11.22-.27-22.47,.99-33.7,1.53-2.45,.12-3.93,.78-4.02,3.8-.25,9.06-8.01,17.11-17.26,17.26-18.31,.3-36.64,.33-54.96-.04-9.84-.2-15.97-7.86-16.33-19.72-7.54-.71-15.17-2.03-22.81-2.03-29.29,.02-58.6-.14-87.86,.91-33.87,1.22-67.7,3.58-101.54,5.59-18.27,1.09-36.52,2.48-54.78,3.73-11.33,.77-20.15-9.5-17.5-20.88,5.18-22.3,10.61-44.55,16-66.8,13.09-53.98,26.21-107.96,39.33-161.93,1.84-7.57,3.84-9.38,12.05-10,3.66-.28,6.75-.25,7.95-4.9,.39-1.52,3.43-3.01,5.44-3.32,3.57-.54,7.27-.15,11.61-.15Zm479.07,180.5c-.58-2.07-.92-3.46-1.35-4.83-9.24-29.2-18.49-58.39-27.72-87.59-.45-1.42-1.05-2.86-1.1-4.31-.03-1.03,.74-2.08,1.15-3.12,.94,.58,2.21,.94,2.75,1.77,.87,1.33,1.35,2.95,1.85,4.49,9.83,30.29,19.66,60.59,29.44,90.9,2,6.2,.44,8.17-6.21,8.14-13.7-.05-27.39-.27-41.09-.16-26.1,.22-51.93,3.13-77.49,8.34-29.66,6.04-58.24,15.07-84.38,30.79-1.11,.67-2.19,1.39-3.29,2.09,1.02,.3,1.66,.09,2.25-.24,31.52-17.17,65.82-24.09,101.11-26.35,18.77-1.2,37.74-1.37,56.49-.11,23.2,1.57,46.28,5.1,69.4,7.82,3.4,.4,6.77,1.02,10.81,1.64-.88-3.08-1.51-5.41-2.21-7.71-17.64-57.8-35.3-115.59-52.92-173.4-4.5-14.78-8.82-29.61-13.26-44.4-.75-2.5-1.57-4.97-4.91-5.14-3.65-.19-7.3-.69-10.95-.78-16.98-.43-33.88,.43-50.68,3.07-33.59,5.27-64.82,16.54-92.6,36.46-17.96,12.88-33.27,28.3-43.25,48.35-1.21,2.43-1.84,5.41-1.86,8.14-.15,19.54,0,39.08-.09,58.63-.17,33.65-.46,67.3-.6,100.95,0,1.36,1.04,2.73,1.6,4.1,1.17-.7,2.74-1.12,3.44-2.14,9.47-13.8,21.15-25.43,34.49-35.43,22.02-16.5,46.28-28.14,73.42-33.36,2.13-.41,6.45,.43,6.48,.88,.2,3.51-3.12,2.89-5.24,3.39-35.15,8.33-65.93,24.54-91.25,50.54-4.39,4.51-8.27,9.53-12.38,14.31,4.8-2.79,8.94-6.22,13.32-9.29,24.02-16.79,50.91-27.07,79.11-34.14,22.12-5.54,44.54-9.53,67.35-10.62,19.21-.91,38.45-1.18,57.68-1.69,4.01-.11,8.02-.02,12.64-.02Zm-246.13,56.29c.09-2.11,.16-3.05,.17-3.98,.19-22.66,.45-45.32,.53-67.98,.1-28.5-.11-57,.17-85.49,.06-6.14-1.5-11.35-4.54-16.5-16.86-28.6-40.66-49.89-69.44-65.85-37.44-20.77-77.95-29.01-120.44-28.79-7.27,.04-7.35,.11-8.71,7.16-5.52,28.45-10.99,56.92-16.58,85.36-9.28,47.18-18.65,94.35-27.98,141.52-.81,4.11-.13,4.63,4.17,4.27,19.31-1.61,38.61-3.7,57.95-4.52,26.83-1.14,53.66-.83,80.37,2.92,22.25,3.13,43.96,8.12,64.59,17.15,9.86,4.32,19.46,9.23,29.17,13.86-.48-.52-1.01-1.11-1.55-1.69-16.35-17.27-36.65-28.2-58.77-35.98-20.57-7.23-41.91-10.72-63.61-12.53-22.38-1.86-44.71-1.53-67.07-.03-5.41,.36-10.83,.83-16.25,.82-6.37-.01-9.12-3.6-7.86-9.68,1.22-5.83,2.52-11.65,3.72-17.48,10.22-49.47,20.42-98.94,30.63-148.42,1.81-8.75,3.49-17.54,5.47-26.25,.28-1.23,1.92-2.15,2.93-3.21,.63,1.31,1.84,2.66,1.77,3.93-.17,2.95-.92,5.87-1.52,8.79-12.14,59.05-24.29,118.09-36.43,177.13-.47,2.29-.82,4.62-1.29,7.25,7.93-.47,15.08-.79,22.23-1.34,29.43-2.24,58.79-1.92,88.02,2.56,27.06,4.15,52.8,12.15,76.16,26.82,12.69,7.97,24.11,17.44,33.97,30.17Zm38.45,10.2l-.21,2.19c1.86,.37,3.76,1.17,5.58,1.02,10.11-.82,20.21-2.74,30.31-2.69,27.8,.12,55.59,.93,83.38,1.67,9.89,.26,19.76,1.02,29.63,1.71,17.44,1.21,34.88,2.46,52.3,3.84,14.32,1.13,28.62,2.44,42.92,3.74,12.55,1.14,25.07,2.59,37.63,3.5,8.82,.64,11.7-3.41,9.26-12.09-.44-1.57-.94-3.12-1.41-4.67-3.42-11.28-6.9-22.55-10.27-33.84-18.32-61.56-36.61-123.12-54.93-184.68-1.72-5.78-3.63-6.59-9.75-4.17,.32,1.37,.59,2.8,.99,4.2,3.62,12.77,7.19,25.56,10.91,38.31,17.13,58.65,34.32,117.28,51.47,175.93,2.06,7.05,.45,9.02-6.82,8.57-.81-.05-1.63-.08-2.43-.18-12.35-1.61-24.67-3.6-37.06-4.76-33.31-3.14-66.61-6.81-100.01-8.61-33.59-1.81-67.27-1.14-100.58,4.64-10.36,1.8-20.61,4.25-30.9,6.4ZM145.89,198.93c-7.04-1.3-7.51-1.01-8.96,4.97-1.37,5.66-2.76,11.32-4.13,16.98-16.59,68.47-33.17,136.94-49.77,205.41-2.06,8.5,.84,12.39,9.47,11.85,19.48-1.23,38.94-2.77,58.42-3.99,23.54-1.47,47.08-3.13,70.64-3.98,34.02-1.23,68.06-2.16,102.1-2.45,12.13-.1,24.37,1.44,36.36,3.42,5.66,.94,9.2-.36,12.76-4.63-1.42-.38-2.66-.78-3.93-1.05-26.32-5.71-53.02-8.25-79.88-8.8-40.04-.81-79.99,1.39-119.88,4.7-22.55,1.87-45.08,3.96-67.61,6.12-7.18,.69-9.26-1.4-7.58-8.47,15.67-65.87,31.35-131.74,46.99-197.62,1.77-7.46,3.34-14.96,5.01-22.46Zm187,199.59c-.8-.26-1.55-.54-2.32-.76-21.09-5.99-42.68-8.61-64.52-9.94-29.22-1.79-58.27,.25-87.3,3.18-8.49,.86-16.96,1.94-25.46,2.66-6.86,.58-11.04-3.93-9.8-10.34,7.51-38.69,15.03-77.38,22.59-116.06,5.97-30.57,12.04-61.12,17.91-91.71,.27-1.42-.95-3.12-1.48-4.69-.81,1.21-2.07,2.31-2.37,3.63-4.61,19.78-8.76,39.68-13.67,59.39-13.03,52.33-26.38,104.58-39.59,156.86-.38,1.51-.59,3.06-.95,4.97,2.31,0,4.05,.09,5.78-.01,13.4-.81,26.78-2,40.18-2.43,30.23-.96,60.46-1.77,90.7-2.17,9.73-.13,19.51,.88,29.2,1.97,13.71,1.53,27.36,3.61,41.08,5.47Zm47.31,24.27c.05-.41,.1-.82,.15-1.22-4.51-1.38-8.98-2.95-13.55-4.11-35.57-9.08-71.91-11.97-108.42-11.99-24.38-.01-48.79,1.37-73.12,3-24.59,1.66-49.11,4.35-73.65,6.69-6.76,.65-8.77-1.41-7.21-8.07,8.37-35.72,16.74-71.44,25.17-107.15,8.37-35.44,16.84-70.86,25.24-106.29,.25-1.05,.23-2.16,.34-3.24l-1.5-.25c-18.3,77.25-36.6,154.5-54.95,231.97,.99,.16,1.51,.36,2.01,.31,10.65-1.05,21.28-2.32,31.94-3.17,27.55-2.2,55.09-4.88,82.69-6.12,26.66-1.2,53.4-1.1,80.1-1.08,22.68,.02,45.13,2.86,67.4,7.05,5.82,1.09,11.58,2.44,17.37,3.68Zm329.95,1.82c-.7-2.69-1.15-4.61-1.71-6.51-13.31-45.51-26.68-91-39.94-136.52-7.54-25.88-14.91-51.81-22.4-77.71-.46-1.6-1.32-3.08-1.99-4.61l-1.01,.45c.23,1.16,.38,2.34,.71,3.48,17.08,58.93,34.22,117.85,51.25,176.8,3.12,10.8,6.01,21.67,8.65,32.59,1.05,4.34-1.62,6.71-6.05,6.06-16.35-2.38-32.63-5.37-49.05-7.07-27.22-2.81-54.49-5.57-81.81-6.94-31.22-1.57-62.36,.56-93.03,7.15-9.95,2.14-19.75,4.95-29.62,7.45,.48,.86,.76,.98,1,.92,22.77-5.31,45.83-8.76,69.21-9.03,23.32-.27,46.67-.26,69.97,.61,18.53,.69,37.04,2.6,55.51,4.44,17.38,1.73,34.7,4.07,52.05,6.16,5.87,.71,11.73,1.47,18.27,2.29Zm-365.32-17.43l.21-.41c-.89-.25-1.78-.54-2.68-.74-29.77-6.41-59.88-10.17-90.33-9.83-27.92,.31-55.84,1.35-83.74,2.37-13.67,.5-27.31,1.8-40.98,2.52-6.51,.34-8.17-1.8-6.59-8.07,8.07-32.04,16.35-64.04,24.31-96.11,9.23-37.19,18.2-74.45,27.26-111.68,.28-1.16,.39-2.37,.57-3.56l-.85-.13c-19.78,75.91-39.56,151.82-59.45,228.13,6.73-.64,13.3-1.35,19.87-1.89,25.79-2.11,51.55-4.75,77.38-6.08,21.92-1.14,43.93-1.18,65.89-.89,13.93,.19,27.85,1.7,41.74,2.95,9.16,.83,18.26,2.27,27.38,3.43Zm350.96,5.72c.04-3.98-1.14-6.36-5.15-6.55-1.62-.08-3.22-.41-4.83-.62-24.03-3.15-48-6.9-72.11-9.27-24.15-2.37-48.42-3.19-72.73-2.02-22.53,1.09-44.86,3.38-66.87,8.32-16.56,3.71-32.94,8.06-47.77,16.75-1.13,.66-2.17,1.46-3.25,2.2,6.2-1.83,11.88-4.4,17.76-6.37,23.77-7.93,48.25-12.69,73.19-14.48,16.88-1.21,33.89-1.83,50.8-1.29,20.84,.66,41.66,2.48,62.43,4.4,16.31,1.51,32.53,3.91,48.78,6,6.53,.84,13.02,1.92,19.74,2.92Zm-71.14-226.79l-.71,.1c.62,2.54,1.13,5.12,1.89,7.62,16.78,55.5,33.58,110.99,50.39,166.49,2.75,9.08,5.74,18.08,8.31,27.21,1.58,5.61-1.27,8.59-7.11,8.01-.94-.09-1.9-.12-2.83-.29-25.17-4.8-50.48-8.46-76.11-9.83-30.83-1.65-61.54-.92-92.04,4.35-4.13,.71-8.25,1.58-12.34,2.52-4.02,.92-8,2.03-12,3.05,70.09-12.39,139.59-5.06,208.83,5.72-22.17-71.9-44.22-143.42-66.27-214.94Zm-252.35,250.39c2.94,1.65,5.38,4.14,7.93,4.25,13.9,.59,27.82,.61,41.73,.78,1.13,.01,2.64,.05,3.32-.61,2.29-2.2,4.29-4.71,6.37-7.08-14.65-12.93-45.62-12.26-59.35,2.66Zm264.78-237.55c-.87,.27-1.75,.53-2.63,.8,13.68,44.79,27.36,89.58,41.03,134.38l.87-.26c-13.09-44.97-26.18-89.94-39.28-134.91Zm-473.16-8.03c-.63-.34-1.26-.69-1.9-1.03-.73,1.36-1.81,2.65-2.15,4.1-6.54,27.66-12.97,55.35-19.46,83.03-3.31,14.12-6.68,28.22-10.02,42.34,.25,.06,.5,.12,.76,.19,10.92-42.87,21.85-85.74,32.77-128.61Zm272.89,250.95c-.95,.86-2.15,1.57-2.81,2.61-3.18,5-7.76,5.82-13.31,5.57-12.54-.56-25.11-1.01-37.65-.67-6.17,.17-11.57,.17-15.22-5.64-.06-.1-.48,.01-.73,.04,.7,3.75,4.02,6.42,8.67,6.53,5.82,.14,11.64-.03,17.46-.01,11.1,.04,22.2,.24,33.3,.12,5.73-.06,9.21-2.84,10.3-8.54Z"/><path d="M309.05,135.82c.31-2.66,.2-4.92,.86-6.94,2.3-6.95-.43-11.69-6.15-15.35-.79-.51-1.64-1.09-2.15-1.85-1.13-1.69-3.12-3.77-2.77-5.21,.36-1.49,3.01-3.29,4.77-3.42,10.21-.79,16.81-5.57,20.26-15.44,1.65-4.72,5.28-4.59,8.06-.31,1.92,2.96,3.38,6.25,5.58,8.96,1.38,1.69,3.6,3.12,5.71,3.7,3.63,1,7.5,1.06,11.2,1.86,4.02,.87,4.99,3.78,2.33,6.86-2.21,2.56-4.53,5.11-7.18,7.18-2.89,2.26-3.49,4.73-2.58,8.12,.89,3.26,1.46,6.61,2,9.95,.67,4.21-1.87,6.29-5.83,4.61-3.99-1.69-7.74-3.96-11.76-5.56-1.49-.59-3.7-.52-5.17,.15-3.81,1.74-7.32,4.14-11.09,5.98-3.83,1.87-6.23,.25-6.11-3.29Zm31.79-5.07c-.25-5.36-1.54-9.89-.33-13.58,1.2-3.64,4.94-6.44,7.61-9.67-4.29-1-8.98-1-12.24-3.15-3.31-2.19-5.21-6.51-8.45-10.87-2.07,10.78-9.38,14.07-19.05,14.74,3.45,3.74,7.27,6.27,8.6,9.76,1.37,3.57,.3,8.06,.3,13.13,7.74-7.56,15.52-6.96,23.56-.35Z"/><path d="M571.92,82.11c6.25,1.45,10.9-1.48,14.36-7.06,.71-1.14,1.67-2.13,2.55-3.17,3.77-4.45,7.48-4.05,8.59,1.65,1.92,9.83,7.34,15.37,16.92,17.61,1.75,.41,4.1,2.51,4.29,4.06,.18,1.46-2.09,3.25-3.38,4.83-.41,.5-1.07,.88-1.69,1.11-8.34,2.99-10.74,9.36-10.06,17.53,.08,.94,.21,1.97-.07,2.83-.52,1.57-.99,3.9-2.1,4.34-1.37,.54-3.68-.07-5.05-.99-3.14-2.1-5.81-4.92-8.97-6.99-1.45-.95-3.72-1.39-5.41-1.05-3.84,.76-7.51,2.31-11.32,3.23-4.82,1.17-7.35-1.27-5.14-5.63,4.89-9.65,4.06-17.88-3.86-25.44-1-.95-1.63-3.67-1-4.61,.83-1.24,3.02-1.86,4.73-2.17,1.97-.36,4.05-.08,6.61-.08Zm25.91,35.04c-2.7-10.77,2.08-16.8,11.35-20.64-4.66-2.41-9.08-3.6-11.79-6.42-2.68-2.79-3.64-7.23-5.82-11.98-4.68,9.58-12.21,11.87-22,10.48,7.4,6.97,8.28,14.61,3.18,23.34,5.18-1.1,9.5-3.24,13.2-2.46,3.86,.81,7.14,4.45,11.89,7.68Z"/><path d="M183.58,114.2c.25-1.11,.38-2.94,1.08-4.52,2.06-4.66,.57-8.11-2.8-11.56-1.81-1.86-2.64-4.66-3.91-7.03,2.6-.79,5.16-2.09,7.8-2.25,4.8-.29,8.74-1.48,10.97-6.14,.52-1.08,1.37-2.02,2.15-2.95,2.94-3.5,4.9-3.26,6.92,.82,.42,.85,.85,1.71,1.11,2.62,1.44,5.05,4.61,8.09,9.92,8.73,.66,.08,1.39,.23,1.93,.58,1.61,1.07,4.16,2.07,4.42,3.46,.25,1.35-1.78,3.22-3.02,4.69-.76,.91-1.86,1.58-2.9,2.21-3.49,2.12-4.46,5.17-3.61,9.04,.32,1.45,.6,2.98,.45,4.43-.16,1.5-.45,3.61-1.44,4.21-1,.61-3.11,.05-4.41-.61-2.4-1.22-4.44-3.2-6.88-4.28-1.62-.72-3.82-.92-5.53-.47-2.72,.71-5.18,2.35-7.87,3.24-3.18,1.05-4.62-.25-4.39-4.21Zm31.76-17.07c-7.68-.71-11.27-5.44-13.23-11.79-2.54,2.74-4.26,5.66-6.82,7.06-2.62,1.43-6.06,1.37-10.57,2.23,7.41,4.51,7.22,10.35,5.41,17.02,6.88-4.92,12.72-3.04,18.52,1.95-2.35-7.63,.72-12.4,6.69-16.46Z"/><path d="M543.38,478.22c1.76,.21,2.71,.29,3.64,.44,4.1,.68,7.48-.34,9.81-4.02,.43-.68,1.04-1.25,1.58-1.85,3.92-4.36,6.13-4.05,7.6,1.65,1.37,5.34,4.04,8.81,9.48,10.37,1.66,.47,3.6,2.27,4.03,3.83,.26,.95-1.86,3.07-3.35,3.9-4.19,2.35-7.21,5.11-6.43,10.47,.19,1.29-.21,2.69-.5,4.01-.63,2.86-2.26,3.49-4.73,1.93-.11-.07-.25-.13-.33-.24-4.89-6.19-10.72-7.65-18.04-4.25-2.62,1.22-4.01-.67-3.45-3.54,.1-.53,.16-1.09,.39-1.57,2.67-5.45,2-10.27-2.28-14.74-.93-.97-1.62-3.33-1.07-4.27,.71-1.23,2.76-1.68,3.65-2.15Zm18.14-1.13c-3.62,5.92-9.11,6.95-15.51,6.84,5.4,4,4.05,9.17,2.98,14.23,3.34-.46,6.2-1.61,8.56-.96,2.45,.68,4.43,3.1,6.68,4.81,.74-2.95,.82-5.77,2.12-7.8,1.35-2.11,3.88-3.48,6.44-5.63-6.4-1.38-10.04-4.94-11.28-11.49Z"/><path d="M740.18,277.43c-3.78-1.26-7.13-2.37-10.24-3.41-1.59,2.44-3.43,5.27-4.96,7.62,2.19,3.22,4.45,6.52,7.03,10.31,3.07-3.03,7.56-3.75,12.23-2.07,1.47,.53,2.55,2.14,3.81,3.26-1.4,.43-3.02,1.55-4.15,1.18-4.45-1.47-7.61-.18-10.82,3.05-3.55,3.58-5.62,2.91-6.35-2.08-.72-4.98-2.5-8.46-7.4-10.5-3.23-1.34-3.34-3.7-.34-5.38,4.01-2.24,6.17-5.06,6.63-9.79,.37-3.84,2.79-4.52,5.55-1.64,2.92,3.04,5.48,4.76,9.78,2.37,2.42-1.35,4.37,.47,5.32,2.91,1.82,4.68-2.66,10.79-7.68,10.43-.68-.05-1.68-.53-1.87-1.05-.2-.59,.18-1.57,.61-2.15,.84-1.12,1.9-2.09,2.83-3.08Z"/><path d="M286.8,499.71c4.57,2.32,8.53,.21,12.44-3.36,2.58-2.36,4.63-1.61,5.1,1.85,.71,5.1,2.78,8.61,7.64,10.9,3.54,1.67,3.38,4.28-.2,5.72-4.29,1.73-6.97,4.27-7.49,9.06-.13,1.22-1.34,2.79-2.45,3.27-.7,.3-2.57-.87-3.18-1.84-2.51-4.01-5.69-5.28-10.29-3.85-1.46,.46-4.28,.15-4.77-.75-.71-1.29-.46-3.82,.41-5.15,2.61-3.98,1.34-7.23-.76-10.83-2.04-3.5-.85-5.29,3.55-5.03Zm2.78,17.16c4.12-1.42,8.22-.92,10.39,3.08,2.48-2.98,4.74-5.69,7.21-8.65-4.49-1.2-6.01-5.3-6.97-10.91-3.31,4.34-6.81,5.86-10.63,4.21v12.28Z"/><path d="M70.04,257.57c2.45-5.23,.14-8.69-3.75-11.96-2.41-2.03-1.49-4.74,1.9-5.02,5.13-.43,7.99-3.04,10.18-7.36,1.44-2.84,3.92-2.74,5.21,.03,2.16,4.64,5.2,7.08,10.52,7.24,3.03,.09,3.89,2.66,1.73,4.82-3.61,3.62-5.29,7.35-3.91,12.63,.83,3.15-.98,4.16-4.08,2.95-.38-.15-.77-.3-1.09-.54-3.82-3-7.49-3.07-11.35,.09-.94,.77-2.89,1.1-3.98,.65-.79-.33-.93-2.25-1.38-3.53Zm10.85-18.66c-2.78,1.96-5.81,4.09-8.99,6.33,3.12,2.28,4.69,5.76,3.14,10.7,4.06-4.12,8.11-2.78,11.12-1.02,1.26-3.85,2.36-7.22,3.27-10.01-2.73-1.92-5.77-4.05-8.55-6Z"/><path d="M220.55,479.27c-1.36,0-2.45,.01-3.53,0-2.49-.04-3.4-1.72-2.28-3.49,2.78-4.4,3.27-8.53,.49-13.14-1.21-2.01,.03-3.35,2.37-3.38,.95-.01,1.99-.13,2.82,.2,3.62,1.43,6.48,.18,9.41-1.96,3.38-2.48,4.94-1.92,5.51,2.06,.6,4.19,2.25,7.17,6.1,9.32,3.59,2,3.41,4.08-.35,5.61-3.74,1.52-6.01,3.76-6.76,7.81-.23,1.23-1.55,3-2.56,3.13-1.07,.14-2.72-1.11-3.48-2.2-2-2.87-4.07-5.19-7.73-3.96Zm9.67-.74c2.28-2.68,4.37-5.14,6.03-7.09-1.86-2.84-3.89-5.92-5.57-8.49-3.15,.6-6.53,1.25-9.45,1.8v9.94c3.37-.28,7.29-.16,9,3.84Z"/><path d="M484.52,250.45c.55-5.46,1.19-9.77,1.32-14.09,.05-1.65-.62-3.73-1.71-4.93-2.63-2.9-5.83-5.28-8.54-8.12-1.19-1.25-2.79-3.64-2.32-4.59,.79-1.62,2.91-3.05,4.76-3.6,3.88-1.15,8.01-1.41,11.89-2.56,1.81-.54,3.75-1.96,4.79-3.53,2.09-3.14,3.5-6.73,5.38-10.02,2.5-4.37,5.52-4.43,8.31-.17,2.16,3.29,3.87,6.91,6.31,9.95,1.35,1.69,3.66,3.03,5.79,3.58,3.78,.98,7.77,1.1,11.62,1.82,4.08,.76,5.3,3.98,2.61,7.14-2.63,3.09-5.55,5.96-8.51,8.74-1.96,1.84-2.85,3.6-2.05,6.41,1.07,3.76,1.8,7.66,2.27,11.54,.18,1.52-.27,3.65-1.28,4.62-.81,.78-3.09,.68-4.39,.16-4.27-1.72-8.29-4.06-12.6-5.65-1.75-.65-4.22-.56-5.95,.17-4.1,1.74-7.87,4.27-11.95,6.08-3.57,1.59-5.88-.25-5.75-2.96Zm-1.37-29.55c9.68,5.62,11.76,13.59,8.19,24.28,3.82-2.01,6.49-3.25,8.99-4.78,3.2-1.94,6.22-2.07,9.53-.2,2.72,1.54,5.67,2.69,8.51,4.01l1.21-.33c-5.67-10.06-1.82-17.33,6.66-23.71-10.89,.21-17.9-4.45-21.74-14.65-3.01,11.16-10.44,15.08-21.35,15.38Z"/><path d="M572.12,330.73c-4.19-1.22-8.79-2.37-13.26-3.92-2.81-.97-4.84-.41-7.01,1.5-3.04,2.68-6.26,5.19-9.6,7.5-3.77,2.6-6.5,1.14-6.85-3.44-.31-4.05-.27-8.15-.92-12.14-.31-1.87-1.51-4.01-2.98-5.17-3.07-2.41-6.67-4.13-9.9-6.35-3.45-2.38-3.35-5.25,.38-7.18,3.84-1.98,8.07-3.22,11.85-5.3,1.91-1.06,3.72-3.02,4.64-5.01,1.58-3.41,2.3-7.21,3.61-10.76,1.7-4.62,5.57-5.48,8.14-1.34,5.75,9.22,13.15,13.86,24.22,11.12,.99-.25,2.17,.02,3.22,.26,3.52,.83,4.66,3.28,2.7,6.34-2.19,3.42-4.49,6.8-7.11,9.89-1.97,2.31-2.02,4.42-1,7.05,1.51,3.91,2.94,7.87,4.1,11.89,.91,3.16-.85,5.27-4.2,5.06Zm-24.63-44.37c-1.48,10.89-7.45,16.84-18.14,19.18,10.35,3.92,13.82,11.35,12.79,22.02,7.32-9.48,15.97-9.72,25.63-4.77-1.36-5.41-3.71-9.88-3.15-13.95,.55-3.97,4.07-7.53,6.91-12.32-10.55,1.94-18.75-.07-24.04-10.16Z"/><path d="M417.81,252.3c.18-1.95-.17-3.56,.48-4.44,4.48-6.06,9.11-12.01,13.86-17.86,.49-.61,2.07-.34,3.15-.47-.09,.98,.19,2.25-.32,2.9-4.89,6.3-9.9,12.5-14.91,18.7-.29,.36-.9,.48-2.27,1.16Z"/><path d="M283.8,234.85c10.75,4.07,17.95-.33,24.21-8.3,3.19-4.06,7.07-3.13,7.76,1.92,1.37,10.14,6.47,16.33,16.25,19.17,1.7,.49,3.97,2.79,3.99,4.3,.03,1.47-2.21,3.74-3.91,4.34-8.97,3.15-13.26,9.05-12.11,18.65,.08,.65-.12,1.35-.25,2.01-.97,5.01-3.27,5.96-7.25,2.85-2.88-2.25-5.4-5.03-8.46-6.97-1.81-1.14-4.46-1.76-6.57-1.46-3.86,.55-7.57,2.05-11.39,2.96-4.2,1.01-6.31-1.25-4.96-5.38,1.26-3.86,3.06-7.56,4.12-11.46,.46-1.7,.16-3.95-.61-5.56-1.39-2.92-3.6-5.44-5.06-8.32-.89-1.75-1.99-4.45-1.26-5.71,.91-1.56,3.62-2.08,5.5-3.03Zm42.44,17.22c-10.05-2.5-14.55-9.06-15.44-18.47-4,3.46-6.83,7.36-10.6,8.75-3.8,1.4-8.52,.31-12.99,.31,2.11,4.13,5.18,7.71,5.56,11.54,.37,3.76-2,7.79-3.2,11.82,4.83-.75,9.34-2.62,13.21-1.73,3.82,.88,7,4.56,11.25,7.57-1.24-9.9,2.45-16.49,12.21-19.81Z"/><path d="M362.31,364.64c-28.99-17.99-60.05-29.93-94.38-32.34l.12-2c3.26-.33,6.52-1.03,9.77-.93,15.2,.48,29.73,4.26,43.9,9.49,12.63,4.66,24.82,10.26,35.61,18.48,2.17,1.66,4.05,3.69,6.07,5.55-.36,.58-.73,1.17-1.09,1.75Z"/><path d="M299.8,298.83c-1.49-.3-3.04-.43-4.47-.93-11.17-3.89-22.51-6.85-34.44-6.95-.8,0-1.71,0-2.38-.36-.85-.46-1.5-1.28-2.24-1.94,.86-.67,1.73-1.94,2.58-1.93,4.86,.06,9.85-.19,14.54,.84,7.62,1.67,15.07,4.14,22.52,6.51,1.72,.55,3.12,2.1,4.67,3.18-.26,.52-.52,1.05-.78,1.57Z"/><path d="M256.96,214.15c-7.34-1.05-14.69-2.04-22-3.23-.92-.15-1.66-1.4-2.49-2.14,.93-.8,1.98-2.41,2.76-2.29,7.7,1.2,15.37,2.62,23,4.2,.71,.15,1.64,1.9,1.49,2.72-.14,.73-1.64,1.19-2.55,1.77l-.21-1.03Z"/><path d="M239.33,256.05c3.34,.38,6.73,.55,10,1.24,1.06,.22,1.84,1.8,2.75,2.76-1.14,.51-2.28,1.45-3.42,1.45-5.53-.02-11.06-.19-16.57-.57-1.22-.08-2.36-1.2-3.54-1.85,1.15-.86,2.22-2.25,3.48-2.47,2.36-.4,4.84-.11,7.28-.11l.03-.46Z"/></svg>