<?xml version="1.0" encoding="UTF-8"?><svg id="a" xmlns="http://www.w3.org/2000/svg" viewBox="0 0 800 600.7"><path d="M290.37,95.2c-2.12-2.73-4.03-5.03-5.75-7.47-.99-1.4-3.21-3.03-1.12-4.75,2.08-1.71,3.3,.67,4.42,2.01,2.57,3.07,5.03,6.25,7.8,9.73,2.38-3.1,4.51-5.86,6.64-8.63,.57-.74,.98-1.76,1.73-2.16,1.02-.55,2.29-.64,3.45-.93,0,1.13,.41,2.5-.07,3.34-1.24,2.14-2.89,4.04-4.36,6.05-.54,.74-1.04,1.52-1.75,2.55,.77,.19,1.3,.43,1.84,.45,2.81,.09,3.73,1.57,3.62,4.26-.19,4.87-.11,9.74-.27,14.61-.08,2.3,.87,3.14,3.12,3.1,4.98-.09,9.96-.09,14.94-.02,5.87,.08,8.2,2.67,7.89,8.57-.03,.51-.2,1.26,.06,1.49,2.53,2.23,2.74,5.16,2.81,8.23,.01,.5,1,1.18,1.66,1.4,.75,.25,1.64,.1,2.47,.1,43.56,0,87.13,.02,130.69,.02,1.03,0,2.05,0,2.32,0,1.38-3.41,2.64-6.31,3.71-9.28,.29-.81,.02-1.83-.04-2.75-.16-2.47,.18-4.7,2.27-6.46,.63-.53,.96-1.76,.95-2.66-.05-6.07,2.29-8.58,8.36-8.64,4.84-.05,9.69,0,15.07,0-.98-5.4-2-10.23-2.68-15.11-.38-2.7-.12-5.48-.31-8.21-.06-.84-.47-1.77-.98-2.46-1.49-1.99-3.19-3.83-4.65-5.84-.48-.66-.91-1.94-.59-2.46,.43-.72,1.6-1.36,2.47-1.37,2.3-.04,4.61,.26,7.38,.47-.55-1.23-1.01-1.84-1.09-2.5-.17-1.39-.15-2.81-.2-4.22,1.41,.23,2.91,.24,4.2,.76,1.4,.56,2.6,1.6,4.45,2.8-.14-1.77-.39-2.95-.26-4.08,.11-.93,.47-2.25,1.12-2.57,.68-.33,1.97,.14,2.77,.62,1.03,.62,1.85,1.59,3.3,2.9,.69-2.79,1.14-5.17,1.91-7.45,.38-1.14,1.34-2.09,2.04-3.13,.78,.97,1.84,1.83,2.29,2.94,1.02,2.56,1.75,5.24,2.79,8.47,1.33-1.22,2.13-2.13,3.1-2.78,.8-.54,1.97-1.23,2.68-.99,.62,.22,.94,1.61,1.17,2.54,.21,.86,.13,1.8,.2,3.22,1.59-1.06,2.77-2.11,4.14-2.67,1.19-.49,2.61-.42,3.93-.59-.07,1.42,.01,2.86-.25,4.24-.16,.85-.84,1.6-1.57,2.9,2.58-.29,4.68-.68,6.79-.7,1.01,0,2.32,.44,2.91,1.16,.37,.44-.18,1.89-.64,2.7-.71,1.25-1.71,2.34-2.56,3.51-1.4,1.93-3.6,3.62-1.33,6.45,.48,.59,.05,2.01-.13,3.02-.95,5.2-1.88,10.41-2.97,15.58-.45,2.14,.26,2.85,2.32,2.82,4.04-.06,8.09,.1,12.13-.04,7.98-.29,9.3,7.61,6.78,12-.92,1.61-1.2,3.59-1.74,5.41-.12,.39-.07,.83-.18,1.23-.47,1.72-1.24,3.42-1.38,5.17-.14,1.81,.32,3.67,.57,6.02,2,0,4.19,.27,6.24-.13,.81-.16,1.84-1.79,1.88-2.79,.2-4.66,.08-9.33,.08-14,0-7.19,1.8-9.25,8.05-9.21,5.69,.04,7.17,1.89,7.17,8.97,0,133.7,0,267.39-.01,401.09,0,1.14-.19,2.33,.08,3.41,.21,.84,.86,1.95,1.57,2.22,2.15,.79,2.76,2.28,2.74,4.34-.04,3.94,.02,7.88-.02,11.82-.04,3.53-1.07,4.55-4.7,4.64-2.47,.06-4.95,.01-7.85,.01-.18,2.67-.38,5.11-.5,7.55-.21,4.2-2.31,7.14-6.47,7.44-5.34,.39-10.77,.32-16.1-.17-4.11-.38-6.19-3.48-6.37-7.94q-.29-6.92-7.35-6.92c-96.77,0-193.54,0-290.32,0q-5.15,0-5.21,5.01c-.08,7.1-3.16,10.35-10.19,10.46-3.83,.06-7.69,.04-11.48-.36-4.67-.5-6.92-3.21-7.16-7.87q-.36-7.17-7.66-7.24c-4.53-.04-5.38-.9-5.4-5.53-.01-3.53-.15-7.06,.09-10.57,.1-1.4,.75-3.6,1.7-3.95,2.84-1.04,2.56-3.08,2.56-5.24,0-115.86,0-231.71,0-347.57,0-18.67,0-37.34-.02-56.01,0-2.63-.2-5.4,2.77-6.68,3.17-1.36,6.68-1.78,9.53,.22,1.49,1.04,2.58,3.54,2.71,5.45,.36,5.37,.22,10.78,.09,16.17-.06,2.56,.86,3.46,3.44,3.43,10.79-.1,21.57-.09,32.36-.02,2.39,.02,3.47-.65,3.12-3.22-.14-1.06-.05-2.66,.61-3.25,2.59-2.28,2.69-5.14,2.98-8.25,.24-2.66,2.25-4.5,5.07-4.68,4.44-.28,8.9-.46,13.35-.41,2.64,.03,3.77-.78,3.65-3.56-.18-4.25,.07-8.51-.1-12.75-.13-3.23,.23-5.86,4.72-5.87Zm-57.54,175.16l.22,.21c3.42,17.58,6.82,35.16,10.33,52.72,.14,.72,1.37,1.68,2.16,1.74,2.75,.21,5.52,.08,8.67,.08-.2-1.75-.26-3.07-.5-4.35-1.14-5.9-2.34-11.78-3.5-17.68-2.85-14.53-5.64-29.07-8.59-43.58-.27-1.32-1.48-3.44-2.32-3.47-2.57-.1-5.46,.11-7.65,1.28-.99,.53-.63,3.6-.81,5,2.72-.5,4.97-1.16,7.24-1.22,.97-.03,1.98,1.15,2.97,1.79-.88,.66-1.68,1.69-2.65,1.9-2.07,.44-4.23,.46-6.78,.68l1.22,4.89Zm203.51,254.59c.09,.06,.17,.13,.25,.2,1.96,.12,3.91,.36,5.87,.36,26.44,.05,52.88,.07,79.33,.09,8.92,0,17.84,.06,26.75-.14,1.53-.03,4-.95,4.34-2.01,.74-2.31,.83-5.08,.26-7.43-.2-.83-3.14-1.38-4.83-1.38-32.87-.07-65.74-.05-98.61-.04-3.94,0-7.88-.07-11.82,.06-1.03,.03-2.37,.38-3.01,1.09-1.72,1.93-.69,7.49,1.49,9.2Zm116.19-103.94c4.63,0,8.45,0,12.28,0,4.07,0,4.11-.04,4.11-4.22,0-24.06,0-48.12,0-72.18q0-4.32-4.29-4.33c-24.99,0-49.99,.01-74.98,.01-87.84,0-175.69,0-263.53,0q-4.91,0-4.9,5c0,23.96,.05,47.92-.05,71.87-.01,2.98,.93,3.95,3.92,3.92,12.76-.14,25.51-.07,38.27-.09,1,0,2-.12,2.85-.18,.4-2.26,.65-4.21,1.1-6.11,4.43-19.09,8.96-38.15,13.32-57.25,1.53-6.72,2.29-7.66,9.32-6.92,4.16,.44,8.11,.27,12.18,.12,2.67-.1,5.36,.35,8.04,.34,11.29-.05,22.59-.24,33.88-.23,3.4,0,5.34,1.96,5.84,5.32,.2,1.32,.17,2.69,.17,4.03,.01,19.08,.02,38.17,0,57.25,0,2-.01,3.71,2.81,3.7,18.05-.06,36.09-.05,54.14-.03,1.92,0,2.43-.67,2.21-2.65-.88-8.11,1.88-11.1,10.02-11.1,25.93-.01,51.86,0,77.79-.01,1.14,0,2.47,.33,3.38-.14,1.22-.63,2.67-1.72,3.03-2.91,.89-2.93-.65-4.18-4.62-4.18-26.45,0-52.89,0-79.34-.01-2.75,0-5.56-.15-7.02-2.99-1.6-3.11-1.49-6.54,.63-9.14,2.11-2.58,2.2-5.18,1.94-8.1-.49-5.61,.57-6.76,6.3-6.76,26.45-.01,52.89,0,79.34-.02,1.55,0,3.11-.03,4.66-.14,4.29-.32,6.99,.81,8.26,3.53,1.59,3.39,.43,7.75-1.4,10.84-2.12,3.58-3.26,7.74-4.8,11.67-.09,.24,.12,.6,.19,.9,.94,4.17-.42,8.94,3.86,12.28,1.01,.79,.64,3.48,.67,5.31,.01,1.08-.44,2.17-.73,3.43h12.88c-.98-.9-1.56-1.46-2.16-1.99-7.02-6.2-9.06-13.97-5.81-22.52,2.14-5.64,5.25-11.06,8.72-16.03,4.39-6.28,6.17-12.97,5.96-20.47-.07-2.53-.94-4.25-3.01-5.73-1.08-.77-1.6-2.32-2.37-3.52,1.35-.56,2.68-1.55,4.04-1.59,5.91-.18,11.82-.19,17.73-.02,1.35,.04,2.68,1.04,4.01,1.6-.82,1.17-1.6,2.36-2.46,3.49-.88,1.17-2.54,2.23-2.65,3.45-.68,7.54-.2,14.81,4.51,21.38,3.18,4.44,5.93,9.27,8.27,14.21,3.7,7.83,3.65,15.69-1.69,22.95-1.2,1.63-2.81,2.95-4.82,5Zm-40.34,52.06c3.82,.32,3.84,2.59,3.4,5.05-.82,4.59-1.54,9.21-2.57,13.75-.6,2.67,.36,3.3,2.8,3.25,4.87-.1,9.75-.09,14.62-.01,7.05,.11,11.06,5.14,9.67,12.01-.16,.78-.25,1.58-.45,2.87,3.87,0,7.46-.04,11.06,.01,5.2,.08,7.68,2.39,7.74,7.61,.03,2.93-.54,5.87-.87,9.12,2.28,0,4.55,0,6.81,0q4.52,0,4.53-4.39c0-27.28,0-54.56,0-81.84,0-4.38,0-4.4-4.24-4.4-112.95,0-225.9,0-338.86,0-4.62,0-4.63,.02-4.63,4.67,0,21.89,0,43.77,0,65.66,0,5.39,.12,10.79-.05,16.18-.09,2.91,1.04,3.9,3.83,3.72,2.58-.16,5.19-.13,7.78-.01,2.46,.11,3.27-.98,3.23-3.35-.1-5.7-.04-11.41-.04-17.11,0-15.04-.12-30.08,.11-45.12,.04-2.33,1.07-5.5,2.78-6.76,3.51-2.59,7.88-2.31,11.85-.44,3.33,1.57,3.62,4.71,3.61,7.97-.03,18.88-.02,37.75-.02,56.63q0,8.18,8.3,8.15,4.42-.01,4.43-4.55c0-20.43-.03-40.87-.02-61.3,0-4.84,2-8.04,6.62-8.21,5.92-.22,11.89,.14,17.84-.23,.2-.01,.41,.14,.61,.12,1.25-.15,2.66-.01,3.73-.55,6.82-3.47,13.36-.5,14.83,6.89,1.91,9.56,3.82,19.11,5.66,28.68,2.41,12.51,4.71,25.05,7.19,37.55,.16,.78,1.28,1.82,2.09,1.95,3.73,.61,4.33,0,4.33-3.82,.01-23.44,.02-46.88,.03-70.32,0-4.68,.67-5.19,5.43-5.38,1.93-.08,3.83-.93,5.75-1.37,.57-.13,1.52-.31,1.72-.04,1.96,2.6,4.65,1.56,7.14,1.6,9.38,.15,18.75,.35,28.13,.45,3.85,.04,4.89,.8,5.66,4.66,.94,4.68,1.87,9.35,2.8,14.03,3.96,19.89,7.93,39.78,11.9,59.71h31.54c-.18-2.86-.48-5.52-.48-8.19,0-5.99,1.78-7.75,7.81-7.88,2.95-.06,5.9-.01,9.13-.01-.27-1.11-.37-1.6-.51-2.08-2.13-7.5,1.8-12.74,9.62-12.85,1.56-.02,3.11-.02,4.67-.02,4.64,0,9.27,0,14.22,0-.17-1.38-.23-2.29-.4-3.17-.89-4.68-1.86-9.36-2.69-14.05-.21-1.18-.26-2.51,.07-3.63,.87-2.95,0-5.22-2.81-6.5-1.41-.64-2.93-1.11-4.24-1.91-.7-.43-1.6-1.5-1.48-2.09,.17-.81,1.09-1.86,1.9-2.08,2.15-.61,4.4-.83,7.01-1.27-1.77-1.47-3.46-2.65-4.85-4.11-.75-.79-.99-2.05-1.46-3.11,1.12-.33,2.27-1.02,3.34-.91,2.28,.22,4.52,.86,7.38,1.45-1.89-3.37-3.58-6.1-4.94-8.98-.53-1.11-.29-2.59-.41-3.89,1.22,.7,2.82,1.12,3.57,2.16,1.76,2.42,3.1,5.14,4.64,7.72,.96,1.6,1.99,3.15,2.99,4.73,.8-1.29,.93-2.29,.9-3.29-.09-3-.37-6.01-.29-9,.03-1.09,.84-2.16,1.29-3.24,1.04,.45,2.09,.87,3.12,1.35,.32,.15,.56,.46,.78,.66,.88-1.67,1.67-3.18,2.47-4.69l1.03,.28c2.11,4.4-2.55,10.08,2.3,14.3,.87-.96,1.64-1.77,2.37-2.61,1.96-2.28,3.79-4.68,5.91-6.81,.72-.72,2.12-.76,3.2-1.11,.26,1.13,.73,2.25,.72,3.38,0,1.11-.48,2.22-.75,3.32-.58,2.32-1.17,4.64-1.84,7.3,4.98-2.99,9.44-5.82,14.07-8.35,1.13-.62,2.8-.24,4.23-.33-.3,1.4-.29,2.97-.96,4.15-1.28,2.23-2.96,4.24-5.02,7.08,3.51-.91,5.97-1.75,8.5-2.12,1.25-.18,2.63,.5,3.94,.79-.48,1.23-.64,2.8-1.5,3.62-4.51,4.26-9.21,8.33-14.36,12.93Zm-181.35-176.02l.94,.05c.13-.38,.31-.75,.38-1.14,1.74-9.8,3.45-19.6,5.2-29.4,.94-5.31,1.83-10.63,2.94-15.9,.63-2.98,2.28-3.86,4.34-2.33,1.91,1.41,3.35,1.35,5.33,.19,2.01-1.18,3.61,.14,3.45,2.54-.07,1.1-.25,2.19-.43,3.72,1.9-.12,3.42-.16,4.93-.34,4.35-.51,7.2,.89,9.19,4.79,.7,1.38,1.27,2.85,1.67,4.34,5.53,20.36,11.03,40.73,16.6,61.34h48.6c-.23-3.84-.49-7.43-.65-11.03-.34-8.08-.65-16.15-.94-24.23-.35-9.53-.78-19.05-.96-28.59-.08-4.17,1.89-6.01,6.12-6.25,2.69-.16,5.39-.11,8.09-.07,5.3,.09,6.95,1.8,7.12,7.2,.44,14.5,.94,29.01,1.3,43.51,.16,6.39,.03,12.79,.03,19.68,3.08,0,5.53,0,7.98,0q4.86,0,4.87-4.75c0-20.64,0-41.28,0-61.92,0-6.52,1.99-8.6,8.53-8.59,3.82,0,7.65,.48,11.47,.44,5.93-.06,11.85-.41,17.78-.55,1.22-.03,2.5,.17,3.67,.53,2.86,.89,4.67,2.93,4.74,5.9,.24,10.46,.37,20.93,.37,31.4,0,11.72-.17,23.43-.29,35.15-.02,1.75,.86,2.29,2.49,2.41,4.57,.32,4.84,.15,5.38-4.29,.06-.51,.17-1.02,.27-1.53,2.92-14.85,6-29.67,8.69-44.57,1.39-7.7,2.11-15.53,3.03-23.32,.45-3.79,1.31-4.75,5.07-4.66,2.38,.06,4.76,.53,7.13,.41,1.08-.06,2.51-.85,3.07-1.75,.98-1.6,1.98-1.82,3.6-1.26,1.05,.37,2.22,.5,3.34,.55,7.4,.35,9.81,2.9,9.59,10.27-.04,1.24-.19,2.48-.31,3.72-.73,7.63-1.48,15.26-2.2,22.89-1.16,12.17-2.32,24.34-3.45,36.51-.21,2.22-.32,4.44-.49,7.04,2.5,0,4.45,0,6.4,0,4.07-.02,4.15-.08,4.15-4.21,0-24.69,0-49.37-.01-74.06,0-4.38,0-4.39-4.56-4.39-112.95,0-225.91,0-338.86,.01-4.27,0-4.28,.02-4.28,4.37,0,24.58,0,49.16,0,73.75,0,.93-.14,1.93,.14,2.78,.22,.65,1,1.55,1.54,1.57,5.14,.12,10.29,.07,15.73,.07-.17-1.46-.22-2.48-.42-3.47-1.27-6.41-2.58-12.81-3.86-19.21-2.7-13.52-5.44-27.04-8.07-40.57-1.3-6.69,1.35-10.09,8.11-10.71,1.34-.12,2.69-.11,4.04-.11,4.56,.02,6.57,1.63,7.55,6.16,.72,3.34,1.33,6.71,1.98,10.07,3.56,18.32,7.1,36.64,10.71,54.95,.2,1.04,.89,1.98,1.35,2.96l1.12-.16c.3-1.67,.66-3.33,.88-5,.57-4.52,1.06-9.06,1.62-13.58,2.19-17.79,4.44-35.58,6.57-53.38,.65-5.39,2.79-7.16,8.29-6.68,5.05,.44,10.11,.81,15.17,.88,9.3,.14,18.6,.02,27.9,.05,7.01,.02,9.29,2.35,9.29,9.37,0,13.47,0,26.93,0,40.4Zm206.51-70.42l1.03,.05c.21-.77,.49-1.52,.63-2.31,3.01-16.63,5.99-33.26,9.03-49.89,1.39-7.65,2.84-8.81,10.5-8.76,7.26,.05,8.99,2.12,7.75,9.43-2.57,15.23-5.2,30.46-7.77,45.69-1.21,7.17-1.18,7.18,6.1,7.16q4.29,0,4.3-4.33c0-22.2,0-44.4-.01-66.6q0-4.88-5.04-4.88c-72.51,0-145.02,0-217.53,0-40.25,0-80.5-.02-120.75-.02-4.33,0-4.39,.07-4.39,4.31,0,6.43,0,12.86,0,19.29,0,16.18,.07,32.37-.04,48.55-.02,2.88,.95,4.04,3.78,3.68,.61-.08,1.24-.01,1.87-.02q4.15-.03,4.15-4.15c0-20.44-.02-40.87-.02-61.31,0-4.25,1.09-5.45,5.3-5.43,9.74,.05,19.49,.22,29.23,.3,.69,0,1.45-.13,2.07-.42,5.17-2.39,10.23-5.21,16.23-2.53,.75,.33,1.83-.1,2.76-.17,1.86-.14,3.72-.25,5.57-.44,2.56-.25,3.72,.98,4.28,3.4,3.38,14.76,6.84,29.5,10.3,44.24,1.31,5.6,2.69,11.19,4.04,16.79,.74-.93,1.02-1.81,1.21-2.7,3.74-17.12,7.48-34.24,11.2-51.36,1.11-5.1,2.66-6.06,7.28-3.86,4,1.9,7.79,2.53,12.42,2.01,15.78-1.78,31.71,10.37,30.72,27.3-.04,.73,.56,1.81,1.19,2.2,2.26,1.37,2.82,3.33,2.8,5.8-.07,9.94-.03,19.87-.03,30.04h37.33c-.28-1.18-.52-2.06-.7-2.94-1.01-4.76,.56-9.64,4.12-11.1,2.54-1.04,2.99-2.27,2.7-4.88-1.01-9.25,.8-12.44,7.81-14.89,1-9.86,1.87-10.63,11.92-10.63,18.46,0,36.93,0,55.39-.02,3.67,0,7.45-.48,10.19,3.07,0-4.26-.23-8,.05-11.7,.63-8.21,6.55-11.71,14.22-8.69,.93,.37,2.25,.53,3.13,.16,8.63-3.66,13.75-.32,13.74,9.07-.02,15.98-.04,31.95-.07,47.93,0,1.18,0,2.36,0,3.54Zm-71.86,316.27c36.82,0,73.65,0,110.47,0,8.94,0,7.82,.8,8.01-8.05,.06-2.7-.9-3.63-3.6-3.64-13.79-.05-27.58-.39-41.37-.36-41.58,.07-83.16,.29-124.74,.38-29.34,.06-58.68,.01-88.03,.01-12.33,0-24.66,0-36.99,0-25.09,0-50.18,0-75.27,.02-7.89,0-7.16-.87-7.18,7.16-.01,4.48,.02,4.5,4.5,4.48,32.77-.14,65.54-.35,98.31-.4,15.65-.02,31.31,.35,46.96,.37,36.3,.06,72.61,.02,108.91,.03Zm114.08-221.35c0-66.99,0-133.99,0-200.98,0-.73,.27-1.64-.08-2.14-.71-1.03-1.83-2.63-2.62-2.54-1.17,.13-2.5,1.34-3.19,2.44-.52,.83-.15,2.22-.15,3.36,0,133.05-.01,266.11-.02,399.16,0,1.04-.23,2.16,.1,3.09,.32,.9,1.07,2.03,1.89,2.32,3.26,1.16,4.06,.36,4.06-3.73,0-66.99,0-133.99,.01-200.98Zm-362.96-.03c0-23.02,0-46.04,0-69.06,0-44.18,0-88.35,0-132.53,0-2.08-.02-4.16-2.89-4.13-2.66,.03-3.21,1.8-3.05,4.04,.04,.52,0,1.04,0,1.56,0,133.36,0,266.71-.01,400.07,0,.93-.22,1.97,.12,2.77,.33,.79,1.15,1.73,1.91,1.91,3.14,.73,3.92-.19,3.92-4.28,0-66.78,0-133.56,0-200.35Zm178.69,14.2v.02c56.21,0,112.42,0,168.63,0,.93,0,1.98,.24,2.77-.1,.86-.37,1.97-1.18,2.14-1.98,.71-3.25-.12-3.94-4.23-3.95-63.26-.01-126.52-.02-189.78-.02-49.78,0-99.56,0-149.34,0-3.98,0-4.78,.79-4.22,4.07,.5,2.95,2.85,1.91,4.47,1.91,56.52,.05,113.04,.04,169.56,.04Zm-.2,95.82c56.33,0,112.66,0,168.98,0,.83,0,1.8,.26,2.46-.08,.91-.47,2.12-1.3,2.27-2.15,.6-3.19-.09-3.71-4.13-3.71-73.76,0-147.51,0-221.27,0-39.42,0-78.84,0-118.26,.01-3.67,0-4.24,.62-3.93,3.75,.3,3.05,2.62,2.15,4.27,2.15,56.54,.04,113.07,.03,169.61,.04Zm-62.21-263.01c-.04,.2-.31,.97-.31,1.75-.03,17.2,0,34.4-.05,51.6,0,2.29,.94,3.09,3.17,3.08,11.4-.05,22.79-.03,34.19,.02,2.03,0,3.08-.67,3.06-2.86-.06-7.77,.05-15.54-.15-23.31-.03-1.09-1.19-2.77-2.2-3.12-8.8-3.05-17.78-4.85-27.13-2.64-.95,.22-2,.03-3,.03l-.29-1.17c1.3-.6,2.54-1.41,3.9-1.76,6.68-1.73,13.36-1.12,19.97,.43,4.41,1.03,5.02,.52,4.65-4.13-.87-11.09-12.31-21.95-28.84-18.88-2.16,.4-4.35,.61-6.98,.96Zm62.12-21.33c56.22,0,112.43,0,168.65,0,1.04,0,2.18,.24,3.08-.12,.86-.34,1.93-1.22,2.1-2.03,.59-2.81-.23-3.33-4.54-3.33-112.75,0-225.49,0-338.24,0-.93,0-2-.25-2.76,.12-.83,.41-1.84,1.32-1.98,2.15-.6,3.71,2.16,3.21,4.41,3.21,56.42,0,112.85,0,169.27,0Zm.07,90.77c56.42,0,112.84,0,169.26,0,.73,0,1.45-.04,2.18,0,1.95,.08,2.46-1,2.46-2.74,0-1.82-.73-2.71-2.58-2.65-1.04,.03-2.07-.01-3.11-.01-112.42,0-224.84-.02-337.27-.02-.83,0-1.82-.26-2.45,.09-.9,.51-2.06,1.38-2.22,2.26-.64,3.52,2,3.08,4.17,3.08,56.52,0,113.04,0,169.57,0Zm142.86,181.49l.06-.35c.62,0,1.24,.01,1.86,0,12.07-.28,18.96-8.59,15.83-20.24-1.41-5.25-4.46-10.21-7.48-14.83-4.36-6.67-7.56-13.54-7.22-21.68,.08-2-.24-3.37-2.8-3.37-2.73,0-2.69,1.69-2.59,3.52,.41,7.47-1.95,14.05-6.3,20.03-1.46,2.01-2.99,4.02-4.1,6.22-1.8,3.58-3.8,7.19-4.8,11.03-2.11,8.1,2.08,15.53,9.97,18.28,2.39,.83,5.04,.95,7.57,1.4Zm-243.72-191.54c-3.02-13.43-5.98-26.55-8.94-39.67-1.98-8.8-4.08-17.57-5.91-26.4-.63-3.04-2.26-3.62-4.88-3.1-3.26,.64-4.98,2.62-4.76,6.17,.54,8.99,1.15,17.99,1.92,26.96,.96,11.14,2.07,22.28,3.25,33.4,.1,.94,1.27,2.49,1.99,2.52,5.76,.21,11.54,.12,17.32,.12Zm167.19-15.49c9.44,0,18.87,0,28.31,0,6.54,0,7.51-.98,7.59-7.55,0-.62,.02-1.25-.02-1.87-.21-3.28-1.3-4.54-4.65-4.53-20.83,.09-41.67,.24-62.5,.48-1.19,.01-3.3,.81-3.41,1.49-.49,3.16-1.04,6.54-.39,9.59,.59,2.75,3.77,2.37,6.13,2.38,9.64,.02,19.29,0,28.93,0Zm77.43,112.73c3.91,0,7.2,0,10.49,0,4.83,0,4.89-.21,5.3-5.01,1.1-12.89,2.34-25.76,3.51-38.64,.84-9.28,1.66-18.55,2.45-27.83,.23-2.74-1.86-4.48-5.28-4.83-3.1-.31-3.28,1.76-3.5,3.9-.13,1.24-.18,2.48-.4,3.7-3.26,17.93-6.54,35.85-9.82,53.78-.87,4.76-1.75,9.52-2.74,14.93Zm-45.72,184.31v-.02c12.34,0,24.69-.03,37.03,.02,2.4,.01,4.25-.5,5.14-3.03,1.36-3.84-1.02-6.72-5.9-6.73-24.58-.04-49.17-.02-73.75,.01-3.97,0-5.42,1.39-5.41,4.78,.01,3.55,1.52,4.94,5.55,4.95,12.45,.02,24.89,0,37.34,0Zm-124.63-20.53h.03c0-10.68,.01-21.37,0-32.05,0-4.51-.74-5.19-5.29-5.18-.73,0-1.45,.03-2.18,.08-2.33,.17-3.56,1.22-3.49,3.76,.12,4.25,.02,8.51,.02,12.76,0,17.64-.03,35.27,.05,52.91,0,1.45,.38,3.92,1.16,4.17,2.33,.76,5.01,1.1,7.42,.76,2.45-.35,2.27-2.86,2.28-4.84,0-10.79,0-21.58,0-32.37Zm-80.01-200.44h-.03c0,10.78-.03,21.56,.02,32.34,.02,3.39,1.42,4.59,5.12,4.75,3.61,.15,5.59-1.33,5.77-4.57,.15-2.58,.08-5.18,.08-7.77,0-18.86,.03-37.73-.07-56.59,0-1.48-.68-4.04-1.5-4.24-2.36-.57-5.11-.68-7.39,.04-1.05,.33-1.9,3.01-1.92,4.64-.17,10.47-.09,20.94-.09,31.4Zm27.39-.61c0,10.68-.08,21.36,.09,32.04,.02,1.55,.75,3.72,1.91,4.5,4.21,2.86,8.9,.18,8.9-4.83,0-15.14,0-30.28-.02-45.42,0-5.91,.08-11.83-.11-17.73-.13-3.83-1.83-5.17-5.6-5.03-3.91,.15-5.14,1.37-5.15,5.35-.02,10.37,0,20.74-.01,31.11Zm182.27,1.76c0,10.37-.05,20.73,.06,31.1,.01,1.31,.63,3.59,1.32,3.73,2.45,.51,5.23,.84,7.52,.1,1.12-.36,2.01-3.22,2.02-4.95,.14-20.11,.1-40.22,.08-60.33,0-3.85-1.7-5.47-5.48-5.45-4.01,.03-5.49,1.43-5.5,5.32-.02,10.16,0,20.32-.01,30.47Zm-124.79,34.82c5.19,0,6.76-1.8,5.47-6.58-4.81-17.8-9.67-35.6-14.56-53.38-1.44-5.24-5.06-7.12-10.19-5.17-.9,.34-1.66,1.82-1.9,2.9-.22,1.02,.28,2.23,.57,3.33,4.84,18.12,9.67,36.24,14.55,54.34,.94,3.5,2.48,4.55,6.05,4.55Zm84.28-97.68c11.41,0,22.82-.03,34.23,.02,2.54,.01,4.52-.57,5.25-3.3,.99-3.71-1.11-6.37-5.36-6.38-22.51-.05-45.02-.04-67.53,.01-3.85,0-5.6,1.61-5.62,4.74-.03,3.24,1.85,4.88,5.74,4.89,11.1,.02,22.2,0,33.3,0Zm-222.21-32.89c0,9.65-.05,19.29,.06,28.94,.01,1.33,.57,3.68,1.22,3.81,2.66,.53,5.53,.79,8.15,.26,.85-.17,1.61-3.06,1.62-4.72,.1-17.94,.05-35.88,.04-53.83,0-6.98-.01-6.88-7.13-6.84-2.97,.01-4.03,1.14-3.99,4.07,.11,9.44,.04,18.88,.04,28.31Zm99,193.69c0,8.91,0,17.81,0,26.72q0,6.07,6.18,6.05c4.89-.01,4.98-.09,4.98-5.1,0-17.71-.02-35.42-.02-53.12,0-7.07,0-6.93-7.19-7.02-3.22-.04-4.05,1.18-4.01,4.2,.15,9.42,.06,18.85,.05,28.27Zm-83.44-193.47c0,9.64-.03,19.28,.04,28.92,0,1.14,.45,3.18,.95,3.26,2.7,.44,5.61,.93,8.15,.26,1.03-.27,1.79-3.45,1.81-5.31,.14-17.62,.08-35.24,.09-52.86,0-6.95-.05-6.89-7.16-6.9-2.99,0-3.97,1.08-3.93,4.02,.13,9.53,.05,19.07,.05,28.61Zm211.92,226.18v-.02c13.15,0,26.31,.02,39.46-.01,3.53,0,5.39-1.65,5.43-4.57,.04-2.65-1.54-3.85-5.15-3.86-25.27,0-50.54-.08-75.82,.08-2.66,.02-5.38,1.23-7.91,2.27-.56,.23-.98,2.75-.56,3.07,1.6,1.26,3.55,2.86,5.39,2.9,13.05,.24,26.1,.13,39.15,.13Zm18.36-130.84c0-10.47,.02-20.94-.03-31.4,0-1.07-.34-3.03-.72-3.08-2.4-.32-4.96-.6-7.26-.06-.91,.22-1.82,2.59-1.85,4-.17,7.98-.08,15.96-.08,23.94,0,12.44-.06,24.88,.05,37.31,.01,1.5,.61,4.03,1.47,4.29,2.15,.64,4.72,.65,6.88,.05,.85-.24,1.47-2.77,1.49-4.27,.13-10.26,.07-20.52,.06-30.78Zm-214.66,31.57c.15,.39,.34,2.12,.96,2.29,1.9,.51,4.1,.91,5.91,.41,1.18-.33,2.58-2.23,2.74-3.56,2.6-21.47,5.01-42.96,7.47-64.44,.31-2.67-.8-4.13-3.48-4.47-4-.5-5.06,.11-5.49,3.4-1.15,8.93-2.32,17.86-3.4,26.79-1.57,12.94-3.09,25.89-4.71,39.58Zm169.41-51.93c2.29-2.13,7.66-3.04,10.23-1.65,.59,.32,1.21,1.29,1.15,1.9-.06,.57-.94,1.43-1.55,1.51-1.84,.24-3.73,.3-5.58,.19-2.77-.16-3.92,.85-3.79,3.77,.38,8.59,.5,17.19,.84,25.79,.26,6.62,.6,13.24,1.11,19.85,.09,1.14,.94,2.66,1.89,3.22,5,2.92,9.82,.1,9.67-5.6-.37-13.88-.83-27.76-1.29-41.63-.14-4.35-.23-8.71-.66-13.03-.13-1.32-.99-3.22-2.03-3.68-5.84-2.58-10.02,.26-10.01,6.49,0,.93,0,1.86,0,2.88Zm-128.49,118.98h-.03c0-9.64,.02-19.27-.01-28.91-.01-2.94-1.43-4.31-4.36-4.46-3.87-.19-5.92,1.59-5.88,5.44,.08,7.76,.36,15.53,.42,23.29,.08,10.57,.02,21.14,.03,31.71,0,4.63,1.14,5.78,5.58,5.75,3.64-.02,4.24-.78,4.25-5.47,0-9.12,0-18.24,0-27.36Zm-22.91,103.92c0,10.36-.03,20.73,.02,31.09,.01,3.35,.58,3.75,4.5,3.76,2.52,.01,4.8,0,4.75-3.62-.26-20.61-.39-41.23-.64-61.85-.04-3.54-1.5-4.87-4.66-4.78-3.07,.09-3.96,1.15-3.97,4.92-.02,10.16,0,20.31,0,30.47Zm91.44-37.77c-3.1-.46-3.78,1.24-3.45,3.89,.82,6.46,1.3,12.99,2.46,19.39,2.69,14.88,5.67,29.71,8.6,44.55,.57,2.91,2.66,3.93,5.92,3.26,2.71-.55,3.54-2.23,3.03-4.79-4.18-21.03-8.35-42.07-12.52-63.11-.44-2.22-1.48-3.66-4.04-3.19Zm-64.15-165.7h-.01c0-10.88-.04-21.77,.03-32.65,.01-2.26-.47-3.78-3-4.21-3.39-.57-5.49,1.12-5.49,4.8-.02,21.56-.02,43.12,0,64.67,0,3.55,.61,4.06,4.25,4.05,3.68,0,4.21-.45,4.22-4.03,.03-10.88,.01-21.76,.01-32.65Zm1.68,236.5c4.48,.02,5.42-.85,4.74-4.29-4.04-20.44-8.11-40.87-12.15-61.3-.48-2.43-1.82-3.59-4.35-3.39-2.48,.2-3.47,1.61-3.38,3.93,.07,1.76,.07,3.54,.38,5.26,3.38,18.66,6.84,37.3,10.2,55.97,.52,2.91,2.01,4.18,4.57,3.83Zm-34-33.52c0-10.37-.05-20.73,.04-31.1,.02-2.53-.82-4-3.42-4.14-2.59-.14-4.44,.92-5.04,3.58-.18,.8-.15,1.65-.15,2.48,0,20.01,0,40.01,0,60.02,0,3.78,.19,3.92,4.13,3.94,4.2,.02,4.42-.15,4.43-3.98,.02-10.26,0-20.52,0-30.78ZM522.69,88.15c-5.18,0-10.36,.02-15.53-.01-1.95-.01-2.93,.67-2.52,2.8,.81,4.27,1.62,8.54,2.29,12.84,.3,1.92,1.45,2.28,3.06,2.28,8.18-.01,16.36-.05,24.54,0,2.08,.01,2.94-.95,3.26-2.9,.58-3.58,1.31-7.13,1.98-10.69,.8-4.21,.71-4.32-3.71-4.33-4.45,0-8.91,0-13.36,0Zm7.41,235.64c3.08,.11,4.5-1.17,5.14-4.59,2.46-13.04,4.93-26.08,7.38-39.12,1.09-5.81,2.22-11.61,3.16-17.44,.51-3.18-.66-4.38-4.04-4.97-2.84-.5-3.97,.52-4.51,3.46-3.54,19.27-7.29,38.51-10.98,57.75-.68,3.57,.27,4.78,3.84,4.91Zm-91.48,60.35c.9,.09,1.51,.21,2.12,.21,21.46,0,42.93,0,64.39-.02,.72,0,1.76,.14,2.1-.26,.99-1.14,2.19-2.47,2.33-3.82,.08-.85-1.44-2.29-2.54-2.72-1.38-.54-3.06-.43-4.6-.42-12.85,.11-25.7,.3-38.55,.38-11.81,.08-23.61,.01-35.42,.12-1.47,.01-3.21,.3-4.31,1.14-.75,.57-1.15,2.6-.7,3.47,.48,.94,2.08,1.56,3.28,1.75,.37,.06,1.1-1.71,1.55-2.69,.39-.87,.62-1.81,.93-2.72l.95,.19c.1,.97,.32,1.95,.27,2.91-.11,2.1,.99,2.59,2.86,2.69,2.65,.14,3.1-1.23,3.09-3.44,0-.83,.73-1.67,1.13-2.51,.37,.91,.88,1.79,1.08,2.74,.18,.88,.04,1.82,.04,3Zm47.03-65.72h-.43c0,.52,0,1.04,0,1.55,.07,4.7,3.36,6.9,7.66,5.01,.53-.23,1.02-1.25,1.02-1.91,0-16.38-.1-32.77-.13-49.15,0-4.87-.02-9.75,.28-14.61,.3-4.86-1.07-5.95-5.74-4.32-2.39,.83-2.68,2.51-2.68,4.63,.03,19.6,.02,39.19,.02,58.79Zm-182.44-92.26c3.57,.02,4.29-1.18,3.31-5.39-3.28-14.12-6.55-28.25-9.84-42.37-1.03-4.44-2.03-8.89-3.22-13.28-.74-2.7-3.03-3.58-6.28-2.82-2.9,.68-2.26,2.7-1.83,4.66,1.46,6.68,2.89,13.36,4.38,20.03,2.53,11.32,5.07,22.64,7.65,33.94,.88,3.88,2.43,5.2,5.84,5.22Zm207.96-26.88c0,8.28-.04,16.57,.02,24.85,.02,2.86,1.65,4.3,4.52,4.28,3.42-.03,5.21-1.41,5.22-4.31,.04-16.36,.04-32.72,0-49.09-.01-3.37-2.07-5.3-5.2-5.26-3.17,.05-4.51,1.54-4.52,5.29-.04,8.08-.01,16.16-.02,24.23ZM240.56,491.72h-.02c0,9.75,0,19.49,0,29.24q0,5.43,5.56,5.32c.21,0,.42-.02,.62,0,2.08,.13,3.02-.79,3.01-2.92-.06-20.63-.06-41.27-.13-61.9-.01-3.23-1.3-4.21-4.81-4.15-3.39,.06-4.2,.82-4.22,4.25-.03,10.06-.01,20.11-.01,30.17Zm113.06-2.48h0c0-11.19,.02-22.38-.02-33.58-.01-3.11-1.02-3.84-4.2-3.95-2.84-.09-3.16,1.53-3.16,3.77,.03,22.28,.04,44.56-.03,66.84,0,2.69,.66,3.9,3.65,3.92,3.11,.02,3.84-1.2,3.81-4.06-.12-10.98-.05-21.97-.05-32.95Zm-77.23-70.04c2.7,.49,4.23-.92,4.86-4.08,1.68-8.33,3.77-16.57,5.36-24.92,1.92-10.06,3.57-20.17,5.17-30.29,.57-3.59-1.64-5.74-4.48-4.39-1.18,.56-2.07,2.46-2.41,3.91-4.34,18.24-8.56,36.52-12.81,54.78-.93,3.98-.22,4.89,4.31,4.99Zm68.79-163.53l-1.01-.07c-.29,1.05-.68,2.07-.87,3.14-2.44,13.65-4.85,27.31-7.26,40.97-1.13,6.42-2.3,12.84-3.3,19.28-.61,3.9,1.55,5.55,5.37,4.44,2.48-.72,3.33-2.54,3.72-4.83,2.26-13.58,4.22-27.22,6.92-40.71,1.62-8.11-1.58-14.96-3.55-22.22Zm116.52,133.79v.02c-13.27,0-26.54,0-39.81,0-1.14,0-2.53-.26-3.34,.28-1.04,.7-2.08,2.06-2.18,3.22-.06,.71,1.55,1.71,2.57,2.32,.54,.32,1.42,.09,2.14,.09,24.78,0,49.56,0,74.34-.04,2.17,0,4.34-.25,6.51-.46,2.16-.21,3.55-1.41,3.47-3.62-.09-2.45-2.16-1.79-3.56-1.8-13.37-.05-26.75-.03-40.13-.03Zm86.56-162.71c3.89,.03,4.59-.54,5.29-4.48,.91-5.1,1.83-10.2,2.7-15.3,1.86-10.93,3.67-21.87,5.57-32.79,.44-2.49-.24-3.71-2.93-3.82-4.7-.2-5.57,.36-6.42,5.08-2.78,15.5-5.52,31.01-8.29,46.51-.7,3.94-.03,4.76,4.07,4.79Zm-207.08,264.06h-.04c0-10.67-.07-21.33,.05-32,.03-2.77-1.01-3.66-3.67-3.51-2.59,.15-3.45,1.59-3.49,3.82-.07,4.14-.06,8.28-.06,12.43-.01,16.57-.02,33.14-.01,49.71,0,4.08,.82,4.89,4.15,5.01,3.81,.14,3.05-2.54,3.06-4.7,.03-10.25,.02-20.5,.02-30.76Zm169.64-12.73h-34.62c.94,4.89,1.71,9.46,2.77,13.96,.17,.74,1.57,1.68,2.41,1.7,8.06,.12,16.13,.11,24.2-.03,.86-.01,2.3-.94,2.47-1.68,1.06-4.5,1.84-9.06,2.78-13.95Zm-180.79-89.65h-.02c0-3.52,0-7.05,0-10.57,0-6.63-.06-13.26,0-19.9,.03-2.76-1.67-2.93-3.71-2.84-1.73,.08-3.33,.09-3.33,2.58-.03,19.99-.08,39.98-.24,59.97-.02,2.69,1.04,3.34,3.49,3.32,2.43-.02,3.9-.37,3.86-3.35-.13-9.74-.05-19.48-.05-29.22Zm-11.28,.02c0-.73,0-1.45,0-2.18,0-9.23-.03-18.45,.04-27.68,.02-2.53-.98-3.6-3.52-3.45-2.92,.17-3.14,2.08-3.14,4.34,.02,19.28,.06,38.57-.02,57.85-.01,2.6,.64,3.72,3.47,3.7,2.8-.02,3.22-1.33,3.21-3.66-.07-9.64-.03-19.28-.04-28.92Zm206.87-189.58h-.02c0,8.5-.03,17,.03,25.5,0,1.51-.6,3.84,2.14,3.45,2.08-.3,5.08,.43,5.07-3.43-.05-17,0-34,.02-51,0-2.66-1.26-4.11-3.91-4.16-2.82-.05-3.35,1.76-3.33,4.15,.05,8.5,.02,17,.02,25.5Zm-8.86-61.79c11.81,0,23.63-.01,35.44,.01,2.11,0,3.94-.57,3.92-2.93-.02-2.21-1.99-2.3-3.69-2.37-.62-.02-1.24-.02-1.87-.02-22.59,0-45.19,0-67.78,0-.83,0-1.82-.23-2.45,.13-.84,.49-1.97,1.47-1.95,2.21,.03,.96,.88,2.19,1.74,2.74,.76,.48,2.01,.23,3.04,.23,11.19,.01,22.39,0,33.58,0Zm-48.96,56.65v.04c10.26,0,20.53,0,30.79,0,2.01,0,3.88-.18,3.8-2.88-.08-2.43-1.62-3.1-3.77-3.1-20.32,.01-40.64,0-60.97,0-2.23,0-4,.75-4.03,3.27-.03,2.72,2.09,2.65,4,2.65,10.06,0,20.11,0,30.17,0Zm51.15-71.87c-11.39,0-22.78-.01-34.17,.01-1.84,0-4.24-.24-4.22,2.4,.02,2.54,2.27,2.85,4.36,2.85,.31,0,.62,0,.93,0,19.99,0,39.97,.01,59.96-.03,3,0,6.01-.16,8.98-.54,.84-.11,2.23-1.38,2.15-1.94-.15-.96-1.08-2.07-1.99-2.57-.81-.45-2.02-.19-3.05-.19-10.98,0-21.95,0-32.93,0Zm3.11-4.67h0c7.57,0,15.13,0,22.7-.01,4.04,0,8.09-.03,12.13,0,1.73,.01,3.11-.7,2.67-2.47-.26-1.07-1.58-1.98-2.61-2.71-.49-.35-1.41-.11-2.14-.11-21.87,0-43.75,.01-65.62,.03-1.03,0-2.21-.18-3.06,.25-.87,.43-1.95,1.5-1.95,2.29,0,.84,1,2.02,1.85,2.44,.94,.46,2.23,.28,3.36,.28,10.88,.01,21.77,0,32.65,0Zm-224.54,19.92c9.94,0,19.88-.08,29.83,.05,2.63,.03,3.5-1.08,3.54-3.45,.04-2.49-1.7-2.49-3.4-2.5-19.78,0-39.56,0-59.34-.02-2.22,0-3.86,.41-3.9,3.17-.05,2.89,1.85,2.74,3.77,2.73,9.84,0,19.68,0,29.52,0Zm66.43,187.86c-3.75-14.17-7.35-27.8-10.96-41.44l-.56,.05c-2.3,13.72-4.6,27.43-6.94,41.38h18.46Zm-65.93-197.82c8.29,0,16.57,.02,24.86-.01,2.33,0,5.49,.52,5.39-2.93-.09-3.07-3.15-2.35-5.19-2.36-16.68-.05-33.35-.03-50.03-.02-1.03,0-2.27-.24-3.05,.23-.89,.54-1.85,1.71-1.91,2.66-.05,.73,1.13,1.79,2,2.25,.74,.39,1.82,.18,2.75,.18,8.39,0,16.78,0,25.17,0Zm4.03-18.48c-.21-10.03,1.8-8.52-8.99-8.64-.1,0-.25-.04-.3,.01-.84,.79-2.34,1.55-2.4,2.4-.25,4.12-.23,8.26,0,12.38,.05,.85,1.23,2.21,2.07,2.37,8.5,1.55,9.62,.57,9.63-7.9,0-.21,0-.41,0-.62Zm-8.77,275.21l-.52,.07c-2.61,12.17-5.23,24.33-7.89,36.75h8.41v-36.83Zm213.14-186.63c-3.95,.41-5.16,1.95-4.56,5.24,.38,2.1,.51,4.5-.13,6.48-1.26,3.91-1.43,7.48,.01,11.46,.76,2.09-.15,4.79-.31,7.21,4.83,.88,5.03,.7,4.83-3.88-.05-1.13,.15-2.27,.15-3.41,.01-7.64,0-15.27,0-23.09Zm-201.11,329.02c-2.24-11.94-4.36-23.28-6.49-34.61-.36,10.49-.32,20.93-.4,31.36-.02,2.39,.82,3.47,3.24,3.27,1-.08,2.02-.01,3.64-.01Zm-38.89-342l-.33-.02c0,13.64,.02,27.29-.02,40.93,0,1.92,.55,2.92,2.65,2.81,1.94-.1,2.11-1.25,1.96-2.76-1.42-13.66-2.84-27.31-4.26-40.97Zm113.27,341.92c-2.1-10.78-4.12-21.13-6.14-31.48l-.55,.08v31.4h6.69Zm-95.25-230.69h-.69c-1.01,8.91-2,17.83-3.04,26.74-.16,1.41-.5,2.8,1.6,2.89,1.92,.09,2.14-1.18,2.13-2.66,0-8.99,0-17.98,0-26.97ZM511.79,82.52c-2.34-4.83-6.17-6.1-10.97-5.56,3.71,5.99,5.52,6.93,10.97,5.56Zm30.79-5.1c-4.63-.44-7.04,.17-9.19,5.35,5.37,.8,6.3,.26,9.19-5.35Zm-47.72,395.11c.74-3.13,1.4-5.88,2.06-8.64-1.03-.02-1.4,.15-1.66,.43-.76,.83-1.5,1.69-2.2,2.57-2.23,2.78-2.09,3.4,1.8,5.63Zm17-16.95c-.17-.19-.34-.38-.51-.57-2.26,1.65-4.58,3.24-6.74,5.02-.41,.34-.21,1.42-.29,2.16,.69-.04,1.68,.19,2.02-.17,1.92-2.06,3.69-4.27,5.51-6.43Zm-12.92,16.98c2.94-.5,6.41,1.45,8.76-1.82-3.11-.27-6.34-1.13-8.76,1.82Zm-22.19-1.87c-.06,.41-.12,.81-.18,1.22,3.13,2.64,6.6,.45,9.9,.74l.07-.84c-3.26-.37-6.52-.74-9.78-1.11Zm70.91-218.48c-5.24-2.29-9.94-1.2-10.01,2.42,2.47-4.59,6.61-.49,10.01-2.42Zm-60.44,205.3c3.33-2.33,3.25-3.63,0-6.88v6.88Zm22.52,7.49l.56,1.33c2.56-1.16,5.12-2.32,7.68-3.48l-.48-1.07c-2.59,1.07-5.18,2.15-7.76,3.22Zm-28.24-3.32c.17-.42,.34-.85,.5-1.27-1.96-.79-3.91-1.58-5.87-2.38,1.49,1.86,2.6,4.37,5.37,3.65Zm44.51-379.02l.48,.66,5.47-5.87-.35-.34c-1.87,1.85-3.73,3.7-5.6,5.55Zm-1.87-4.2l-.97-.91c-1.5,1.62-3,3.23-4.5,4.85,.32,.3,.64,.6,.97,.9,1.5-1.61,3-3.23,4.5-4.84Zm-31.65,382.01l-1.42-.71c-.79,1.78-1.59,3.55-2.38,5.33l1.03,.48c.92-1.7,1.85-3.41,2.77-5.11Zm30.46-393.75l-1.67,.08c0,1.28-.03,2.56,.07,3.84,0,.09,1.04,.09,1.6,.14v-4.06Zm-50.93,397.43l-.26,.95,6.06,1.39,.27-1.26c-2.02-.36-4.05-.72-6.07-1.08Z"/><path d="M346.62,172.67c5.82,.53,10.28,2.39,13.25,6.84,.52,.78,.32,2.04,.46,3.08-.91-.39-2.08-.54-2.7-1.2-3.24-3.46-7.1-5.21-11.86-4.89-.92,.06-1.87,.1-2.78-.04-.53-.09-1.44-.61-1.42-.85,.08-.62,.44-1.52,.93-1.71,1.51-.61,3.12-.94,4.11-1.22Z"/><path d="M436.34,524.94c-1.84-2.6-1.18-5.37-.34-8.03,.22-.69,1.46-1.06,2.24-1.58,.35,.75,.96,1.48,1.01,2.24,.11,1.64-.11,3.3-.11,4.95,0,1.77-.65,2.77-2.56,2.62-.08-.07-.16-.14-.25-.2Z"/><path d="M548.81,524.55c.31-2.52,.53-5.06,1.03-7.54,.08-.38,1.46-.49,2.24-.72,.2,1.89,.81,3.86,.48,5.65-.23,1.22-1.77,2.19-2.72,3.27l-1.02-.66Z"/><path d="M448.47,520.28c0,.21,.06,.43,0,.61-.47,1.3-1.15,3.75-1.43,3.7-2.35-.36-1.64-2.32-1.56-3.9,.01-.2,.03-.42,.08-.61,.45-1.5-.62-3.94,2.01-3.99,.46,0,.96,2.61,1.45,4.01l-.54,.17Z"/><path d="M439.95,519.77c.62-1.41,1.29-3.91,1.79-3.88,2.77,.18,1.63,2.62,1.53,4.07-.1,1.48-1.07,2.89-1.66,4.33-.52-1.41-1.04-2.82-1.66-4.52Z"/><path d="M525.86,392.46c-.15,1.65-.17,2.64-.33,3.61-1.36,7.95,2.02,14.26,8.81,16.37,6.8,2.12,13.61-1.42,16.83-8.74,.62-1.42,1.2-2.85,1.84-4.26,.06-.14,.35-.17,.54-.24,2.66,3.07,.28,9.79-5.03,14.2-6.8,5.65-18.09,4.43-23.45-2.54-4.62-6-4.58-14.47,.79-18.4Z"/><path d="M424.36,416.27c.91-1.32,1.61-2.33,2.31-3.34,.42,1.23,1.16,2.46,1.15,3.68-.01,.97-.96,1.93-1.49,2.9-.58-.96-1.16-1.91-1.96-3.24Z"/><path d="M430.95,412.95v5.84h-1.02c-1.42-1.92-1.2-3.87-.02-5.84h1.04Z"/><path d="M436.76,266.11c-.48-2.72,.84-4.78,3.85-5.56,2.78-.73,5.99,.77,6.51,3.29,.13,.64-.85,2.13-1.39,2.17-2.95,.22-5.92,.1-8.96,.1Z"/><path d="M233.12,260.63c-.29-.2-1.33-.56-1.39-1.05-.08-.61,.53-1.79,1.04-1.92,1.95-.47,3.98-.74,5.98-.8,.47-.01,1.33,1.07,1.35,1.67,.01,.46-.95,1.23-1.59,1.38-1.59,.37-3.25,.46-5.39,.72Z"/><path d="M232.83,270.36c.64-1.02,1.13-2.76,1.94-2.93,2.02-.41,4.2-.15,6.3-.04,.17,0,.56,1.07,.39,1.29-.4,.51-1.04,1.06-1.65,1.16-2.24,.34-4.51,.5-6.77,.73l-.22-.21Z"/><path d="M434.28,378.62l-.42,4.91-1.29-.09c-.83-1.72-1.13-3.41,.5-5,.41,.06,.81,.12,1.22,.18Z"/><path d="M245.17,465.89c-.52,0-1.11,.16-1.53-.03-.91-.43-1.74-1.04-2.6-1.58,.87-.68,1.7-1.44,2.64-2.01,.39-.24,1.02-.15,1.53-.09,1.55,.18,3.82-.3,3.66,2.09-.05,.8-2.19,1.46-3.37,2.19l-.32-.56Z"/><path d="M244.64,462.18c-1.16-.69-2.33-1.39-3.49-2.08,1.38-.6,2.73-1.26,4.14-1.78,.43-.16,1.15-.1,1.5,.16,.74,.56,1.33,1.32,1.98,2-.76,.38-1.49,.83-2.28,1.1-.46,.16-1.02,.03-1.54,.03l-.31,.56Z"/><path d="M245.93,467.6c-.07,0,.71-.13,1.35,.12,.55,.21,.93,.85,1.38,1.3-.47,.44-.89,1.17-1.42,1.26-1.2,.21-2.48,.28-3.67,.07-.83-.15-1.55-.88-2.32-1.34,.79-.47,1.54-1.02,2.37-1.38,.43-.19,1.01-.03,2.31-.03Z"/></svg>